<mxfile host="app.diagrams.net" modified="2023-11-13T14:13:58.851Z" agent="Mozilla/5.0 (Windows NT 10.0; Win64; x64) AppleWebKit/537.36 (KHTML, like Gecko) Chrome/119.0.0.0 Safari/537.36" etag="VtdRlay6DNBM0EyTlT-c" version="22.1.0" type="device">
  <diagram name="Page-1" id="g67zNiSQJ-sG9WddxMvM">
    <mxGraphModel dx="1894" dy="464" grid="1" gridSize="10" guides="1" tooltips="1" connect="1" arrows="1" fold="1" page="1" pageScale="1" pageWidth="1100" pageHeight="850" background="#FFFFFF" math="0" shadow="0">
      <root>
        <mxCell id="0" />
        <mxCell id="1" parent="0" />
        <mxCell id="oHuWamwqqKZyfX19s7B0-14" value="" style="edgeStyle=orthogonalEdgeStyle;rounded=0;orthogonalLoop=1;jettySize=auto;html=1;entryX=0;entryY=0;entryDx=0;entryDy=0;exitX=1;exitY=0.5;exitDx=0;exitDy=0;" parent="1" source="oHuWamwqqKZyfX19s7B0-5" target="oHuWamwqqKZyfX19s7B0-11" edge="1">
          <mxGeometry relative="1" as="geometry">
            <Array as="points">
              <mxPoint x="180" y="305" />
              <mxPoint x="180" y="390" />
            </Array>
            <mxPoint x="140" y="330" as="sourcePoint" />
          </mxGeometry>
        </mxCell>
        <mxCell id="oHuWamwqqKZyfX19s7B0-5" value="ID" style="ellipse;whiteSpace=wrap;html=1;align=center;fontStyle=4;fillColor=#ffcccc;strokeColor=#36393d;" parent="1" vertex="1">
          <mxGeometry x="30" y="285" width="100" height="40" as="geometry" />
        </mxCell>
        <mxCell id="oHuWamwqqKZyfX19s7B0-15" value="" style="edgeStyle=orthogonalEdgeStyle;rounded=0;orthogonalLoop=1;jettySize=auto;html=1;entryX=0;entryY=0.5;entryDx=0;entryDy=0;" parent="1" source="oHuWamwqqKZyfX19s7B0-6" target="oHuWamwqqKZyfX19s7B0-11" edge="1">
          <mxGeometry relative="1" as="geometry">
            <mxPoint x="550" y="440" as="targetPoint" />
          </mxGeometry>
        </mxCell>
        <mxCell id="oHuWamwqqKZyfX19s7B0-13" value="" style="edgeStyle=orthogonalEdgeStyle;rounded=0;orthogonalLoop=1;jettySize=auto;html=1;entryX=0;entryY=0;entryDx=0;entryDy=0;" parent="1" source="oHuWamwqqKZyfX19s7B0-7" target="oHuWamwqqKZyfX19s7B0-11" edge="1">
          <mxGeometry relative="1" as="geometry">
            <mxPoint x="550" y="430" as="targetPoint" />
            <Array as="points">
              <mxPoint x="180" y="350" />
              <mxPoint x="180" y="390" />
            </Array>
          </mxGeometry>
        </mxCell>
        <mxCell id="oHuWamwqqKZyfX19s7B0-7" value="&lt;span style=&quot;border-bottom: 1px dotted&quot;&gt;CityID&lt;/span&gt;" style="ellipse;whiteSpace=wrap;html=1;align=center;fillColor=#ffcccc;strokeColor=#36393d;" parent="1" vertex="1">
          <mxGeometry x="30" y="330" width="100" height="40" as="geometry" />
        </mxCell>
        <mxCell id="oHuWamwqqKZyfX19s7B0-8" value="Country" style="whiteSpace=wrap;html=1;align=center;fillColor=#dae8fc;strokeColor=#6c8ebf;gradientColor=#7ea6e0;" parent="1" vertex="1">
          <mxGeometry x="-200" y="130" width="140" height="50" as="geometry" />
        </mxCell>
        <mxCell id="oHuWamwqqKZyfX19s7B0-20" value="" style="edgeStyle=orthogonalEdgeStyle;rounded=0;orthogonalLoop=1;jettySize=auto;html=1;" parent="1" source="oHuWamwqqKZyfX19s7B0-9" target="oHuWamwqqKZyfX19s7B0-8" edge="1">
          <mxGeometry relative="1" as="geometry" />
        </mxCell>
        <mxCell id="oHuWamwqqKZyfX19s7B0-9" value="ID" style="ellipse;whiteSpace=wrap;html=1;align=center;fontStyle=4;fillColor=#ffcccc;strokeColor=#36393d;" parent="1" vertex="1">
          <mxGeometry x="-80" y="50" width="100" height="40" as="geometry" />
        </mxCell>
        <mxCell id="oHuWamwqqKZyfX19s7B0-19" value="" style="edgeStyle=orthogonalEdgeStyle;rounded=0;orthogonalLoop=1;jettySize=auto;html=1;" parent="1" source="oHuWamwqqKZyfX19s7B0-10" target="oHuWamwqqKZyfX19s7B0-8" edge="1">
          <mxGeometry relative="1" as="geometry" />
        </mxCell>
        <mxCell id="oHuWamwqqKZyfX19s7B0-10" value="Name" style="ellipse;whiteSpace=wrap;html=1;align=center;fillColor=#ffcccc;strokeColor=#36393d;" parent="1" vertex="1">
          <mxGeometry x="-290" y="50" width="100" height="40" as="geometry" />
        </mxCell>
        <mxCell id="oHuWamwqqKZyfX19s7B0-11" value="Airport" style="shape=ext;margin=3;double=1;whiteSpace=wrap;html=1;align=center;fillColor=#dae8fc;gradientColor=#7ea6e0;strokeColor=#6c8ebf;" parent="1" vertex="1">
          <mxGeometry x="225" y="360" width="130" height="60" as="geometry" />
        </mxCell>
        <mxCell id="oHuWamwqqKZyfX19s7B0-22" value="Airline" style="whiteSpace=wrap;html=1;align=center;fillColor=#dae8fc;gradientColor=#7ea6e0;strokeColor=#6c8ebf;" parent="1" vertex="1">
          <mxGeometry x="920" y="175" width="130" height="60" as="geometry" />
        </mxCell>
        <mxCell id="oHuWamwqqKZyfX19s7B0-24" value="" style="edgeStyle=orthogonalEdgeStyle;rounded=0;orthogonalLoop=1;jettySize=auto;html=1;exitX=1;exitY=0.5;exitDx=0;exitDy=0;" parent="1" source="oHuWamwqqKZyfX19s7B0-23" target="oHuWamwqqKZyfX19s7B0-22" edge="1">
          <mxGeometry relative="1" as="geometry" />
        </mxCell>
        <mxCell id="oHuWamwqqKZyfX19s7B0-23" value="ID" style="ellipse;whiteSpace=wrap;html=1;align=center;fontStyle=4;fillColor=#ffcccc;strokeColor=#36393d;" parent="1" vertex="1">
          <mxGeometry x="860" y="100" width="100" height="40" as="geometry" />
        </mxCell>
        <mxCell id="oHuWamwqqKZyfX19s7B0-27" value="" style="edgeStyle=orthogonalEdgeStyle;rounded=0;orthogonalLoop=1;jettySize=auto;html=1;exitX=0;exitY=0.5;exitDx=0;exitDy=0;" parent="1" source="oHuWamwqqKZyfX19s7B0-26" target="oHuWamwqqKZyfX19s7B0-22" edge="1">
          <mxGeometry relative="1" as="geometry" />
        </mxCell>
        <mxCell id="oHuWamwqqKZyfX19s7B0-26" value="Name" style="ellipse;whiteSpace=wrap;html=1;align=center;fillColor=#ffcccc;strokeColor=#36393d;" parent="1" vertex="1">
          <mxGeometry x="1020" y="100" width="100" height="40" as="geometry" />
        </mxCell>
        <mxCell id="oHuWamwqqKZyfX19s7B0-29" value="" style="edgeStyle=orthogonalEdgeStyle;rounded=0;orthogonalLoop=1;jettySize=auto;html=1;" parent="1" source="oHuWamwqqKZyfX19s7B0-28" target="oHuWamwqqKZyfX19s7B0-22" edge="1">
          <mxGeometry relative="1" as="geometry" />
        </mxCell>
        <mxCell id="oHuWamwqqKZyfX19s7B0-28" value="AirlineNumber/EIK" style="ellipse;whiteSpace=wrap;html=1;align=center;fillColor=#ffcccc;strokeColor=#36393d;" parent="1" vertex="1">
          <mxGeometry x="935" y="60" width="100" height="40" as="geometry" />
        </mxCell>
        <mxCell id="oHuWamwqqKZyfX19s7B0-30" value="Document" style="whiteSpace=wrap;html=1;align=center;fillColor=#dae8fc;gradientColor=#7ea6e0;strokeColor=#6c8ebf;" parent="1" vertex="1">
          <mxGeometry x="-820" y="115" width="120" height="60" as="geometry" />
        </mxCell>
        <mxCell id="oHuWamwqqKZyfX19s7B0-39" value="" style="edgeStyle=orthogonalEdgeStyle;rounded=0;orthogonalLoop=1;jettySize=auto;html=1;entryX=0.5;entryY=0;entryDx=0;entryDy=0;" parent="1" source="oHuWamwqqKZyfX19s7B0-31" target="oHuWamwqqKZyfX19s7B0-30" edge="1">
          <mxGeometry relative="1" as="geometry" />
        </mxCell>
        <mxCell id="oHuWamwqqKZyfX19s7B0-31" value="ID" style="ellipse;whiteSpace=wrap;html=1;align=center;fontStyle=4;fillColor=#ffcccc;strokeColor=#36393d;" parent="1" vertex="1">
          <mxGeometry x="-690" y="60" width="100" height="40" as="geometry" />
        </mxCell>
        <mxCell id="OuouIeQms1KpbcXzNO0Q-1" value="" style="edgeStyle=orthogonalEdgeStyle;rounded=0;orthogonalLoop=1;jettySize=auto;html=1;" parent="1" source="oHuWamwqqKZyfX19s7B0-35" target="oHuWamwqqKZyfX19s7B0-8" edge="1">
          <mxGeometry relative="1" as="geometry" />
        </mxCell>
        <mxCell id="oHuWamwqqKZyfX19s7B0-35" value="Abbreviation" style="ellipse;whiteSpace=wrap;html=1;align=center;fillColor=#ffcccc;strokeColor=#36393d;" parent="1" vertex="1">
          <mxGeometry x="-180" y="30" width="100" height="40" as="geometry" />
        </mxCell>
        <mxCell id="oHuWamwqqKZyfX19s7B0-389" value="" style="edgeStyle=orthogonalEdgeStyle;rounded=0;orthogonalLoop=1;jettySize=auto;html=1;entryX=0.5;entryY=0;entryDx=0;entryDy=0;" parent="1" source="oHuWamwqqKZyfX19s7B0-40" target="oHuWamwqqKZyfX19s7B0-30" edge="1">
          <mxGeometry relative="1" as="geometry">
            <mxPoint x="-770" y="110" as="targetPoint" />
          </mxGeometry>
        </mxCell>
        <mxCell id="oHuWamwqqKZyfX19s7B0-40" value="DocumentNumber" style="ellipse;whiteSpace=wrap;html=1;align=center;fillColor=#ffcccc;strokeColor=#36393d;" parent="1" vertex="1">
          <mxGeometry x="-690" y="10" width="100" height="40" as="geometry" />
        </mxCell>
        <mxCell id="oHuWamwqqKZyfX19s7B0-44" value="" style="edgeStyle=orthogonalEdgeStyle;rounded=0;orthogonalLoop=1;jettySize=auto;html=1;exitX=1;exitY=0.5;exitDx=0;exitDy=0;" parent="1" source="oHuWamwqqKZyfX19s7B0-41" target="oHuWamwqqKZyfX19s7B0-30" edge="1">
          <mxGeometry relative="1" as="geometry" />
        </mxCell>
        <mxCell id="oHuWamwqqKZyfX19s7B0-41" value="&lt;span style=&quot;border-bottom: 1px dotted&quot;&gt;NationalityID&lt;/span&gt;" style="ellipse;whiteSpace=wrap;html=1;align=center;fillColor=#ffcccc;strokeColor=#36393d;" parent="1" vertex="1">
          <mxGeometry x="-920" y="10" width="100" height="40" as="geometry" />
        </mxCell>
        <mxCell id="oHuWamwqqKZyfX19s7B0-45" value="" style="edgeStyle=orthogonalEdgeStyle;rounded=0;orthogonalLoop=1;jettySize=auto;html=1;entryX=0.5;entryY=0;entryDx=0;entryDy=0;exitX=1;exitY=0.5;exitDx=0;exitDy=0;" parent="1" source="oHuWamwqqKZyfX19s7B0-42" target="oHuWamwqqKZyfX19s7B0-30" edge="1">
          <mxGeometry relative="1" as="geometry" />
        </mxCell>
        <mxCell id="oHuWamwqqKZyfX19s7B0-42" value="Valid until" style="ellipse;whiteSpace=wrap;html=1;align=center;fillColor=#ffcccc;strokeColor=#36393d;" parent="1" vertex="1">
          <mxGeometry x="-920" y="60" width="100" height="40" as="geometry" />
        </mxCell>
        <mxCell id="oHuWamwqqKZyfX19s7B0-47" value="Plane" style="shape=ext;margin=3;double=1;whiteSpace=wrap;html=1;align=center;fillColor=#dae8fc;gradientColor=#7ea6e0;strokeColor=#6c8ebf;" parent="1" vertex="1">
          <mxGeometry x="890" y="380" width="140" height="50" as="geometry" />
        </mxCell>
        <mxCell id="oHuWamwqqKZyfX19s7B0-49" value="" style="edgeStyle=orthogonalEdgeStyle;rounded=0;orthogonalLoop=1;jettySize=auto;html=1;" parent="1" source="oHuWamwqqKZyfX19s7B0-48" target="oHuWamwqqKZyfX19s7B0-47" edge="1">
          <mxGeometry relative="1" as="geometry" />
        </mxCell>
        <mxCell id="oHuWamwqqKZyfX19s7B0-48" value="ID" style="ellipse;whiteSpace=wrap;html=1;align=center;fontStyle=4;fillColor=#ffcccc;strokeColor=#36393d;" parent="1" vertex="1">
          <mxGeometry x="1130" y="330" width="100" height="40" as="geometry" />
        </mxCell>
        <mxCell id="oHuWamwqqKZyfX19s7B0-52" value="" style="edgeStyle=orthogonalEdgeStyle;rounded=0;orthogonalLoop=1;jettySize=auto;html=1;" parent="1" source="oHuWamwqqKZyfX19s7B0-50" target="oHuWamwqqKZyfX19s7B0-47" edge="1">
          <mxGeometry relative="1" as="geometry" />
        </mxCell>
        <mxCell id="oHuWamwqqKZyfX19s7B0-50" value="&lt;span style=&quot;border-bottom: 1px dotted&quot;&gt;AirlineID&lt;/span&gt;" style="ellipse;whiteSpace=wrap;html=1;align=center;fillColor=#ffcccc;strokeColor=#36393d;" parent="1" vertex="1">
          <mxGeometry x="1130" y="452.5" width="100" height="40" as="geometry" />
        </mxCell>
        <mxCell id="oHuWamwqqKZyfX19s7B0-53" value="" style="edgeStyle=orthogonalEdgeStyle;rounded=0;orthogonalLoop=1;jettySize=auto;html=1;" parent="1" source="oHuWamwqqKZyfX19s7B0-51" target="oHuWamwqqKZyfX19s7B0-47" edge="1">
          <mxGeometry relative="1" as="geometry" />
        </mxCell>
        <mxCell id="oHuWamwqqKZyfX19s7B0-51" value="Name" style="ellipse;whiteSpace=wrap;html=1;align=center;fillColor=#ffcccc;strokeColor=#36393d;" parent="1" vertex="1">
          <mxGeometry x="1130" y="410" width="100" height="40" as="geometry" />
        </mxCell>
        <mxCell id="oHuWamwqqKZyfX19s7B0-55" value="" style="edgeStyle=orthogonalEdgeStyle;rounded=0;orthogonalLoop=1;jettySize=auto;html=1;" parent="1" source="oHuWamwqqKZyfX19s7B0-54" target="oHuWamwqqKZyfX19s7B0-47" edge="1">
          <mxGeometry relative="1" as="geometry" />
        </mxCell>
        <mxCell id="oHuWamwqqKZyfX19s7B0-54" value="PlaneNumber" style="ellipse;whiteSpace=wrap;html=1;align=center;fillColor=#ffcccc;strokeColor=#36393d;" parent="1" vertex="1">
          <mxGeometry x="1130" y="290" width="100" height="40" as="geometry" />
        </mxCell>
        <mxCell id="oHuWamwqqKZyfX19s7B0-57" value="" style="edgeStyle=orthogonalEdgeStyle;rounded=0;orthogonalLoop=1;jettySize=auto;html=1;" parent="1" source="oHuWamwqqKZyfX19s7B0-56" target="oHuWamwqqKZyfX19s7B0-47" edge="1">
          <mxGeometry relative="1" as="geometry" />
        </mxCell>
        <mxCell id="oHuWamwqqKZyfX19s7B0-56" value="MaxPassengers" style="ellipse;whiteSpace=wrap;html=1;align=center;fillColor=#ffcccc;strokeColor=#36393d;" parent="1" vertex="1">
          <mxGeometry x="1130" y="370" width="100" height="40" as="geometry" />
        </mxCell>
        <mxCell id="oHuWamwqqKZyfX19s7B0-87" value="" style="edgeStyle=orthogonalEdgeStyle;rounded=0;orthogonalLoop=1;jettySize=auto;html=1;entryX=1;entryY=0.5;entryDx=0;entryDy=0;exitX=0;exitY=0.5;exitDx=0;exitDy=0;" parent="1" source="oHuWamwqqKZyfX19s7B0-60" target="oHuWamwqqKZyfX19s7B0-94" edge="1">
          <mxGeometry relative="1" as="geometry">
            <mxPoint x="310" y="730" as="targetPoint" />
            <Array as="points">
              <mxPoint x="845" y="560" />
              <mxPoint x="790" y="560" />
              <mxPoint x="790" y="640" />
            </Array>
            <mxPoint x="840" y="580" as="sourcePoint" />
          </mxGeometry>
        </mxCell>
        <mxCell id="oHuWamwqqKZyfX19s7B0-60" value="ID" style="ellipse;whiteSpace=wrap;html=1;align=center;fontStyle=4;fillColor=#ffcccc;strokeColor=#36393d;" parent="1" vertex="1">
          <mxGeometry x="845" y="545" width="100" height="40" as="geometry" />
        </mxCell>
        <mxCell id="oHuWamwqqKZyfX19s7B0-93" value="" style="edgeStyle=orthogonalEdgeStyle;rounded=0;orthogonalLoop=1;jettySize=auto;html=1;" parent="1" source="oHuWamwqqKZyfX19s7B0-61" target="oHuWamwqqKZyfX19s7B0-94" edge="1">
          <mxGeometry relative="1" as="geometry">
            <mxPoint x="310" y="730" as="targetPoint" />
          </mxGeometry>
        </mxCell>
        <mxCell id="oHuWamwqqKZyfX19s7B0-61" value="FlightNumber" style="ellipse;whiteSpace=wrap;html=1;align=center;fillColor=#ffcccc;strokeColor=#36393d;" parent="1" vertex="1">
          <mxGeometry x="845" y="585" width="100" height="40" as="geometry" />
        </mxCell>
        <mxCell id="oHuWamwqqKZyfX19s7B0-89" value="" style="edgeStyle=orthogonalEdgeStyle;rounded=0;orthogonalLoop=1;jettySize=auto;html=1;" parent="1" source="oHuWamwqqKZyfX19s7B0-62" target="oHuWamwqqKZyfX19s7B0-94" edge="1">
          <mxGeometry relative="1" as="geometry">
            <mxPoint x="380" y="760" as="targetPoint" />
          </mxGeometry>
        </mxCell>
        <mxCell id="oHuWamwqqKZyfX19s7B0-62" value="&lt;span style=&quot;border-bottom: 1px dotted&quot;&gt;PlaneID&lt;/span&gt;" style="ellipse;whiteSpace=wrap;html=1;align=center;fillColor=#ffcccc;strokeColor=#36393d;" parent="1" vertex="1">
          <mxGeometry x="840" y="625" width="100" height="40" as="geometry" />
        </mxCell>
        <mxCell id="oHuWamwqqKZyfX19s7B0-90" value="" style="edgeStyle=orthogonalEdgeStyle;rounded=0;orthogonalLoop=1;jettySize=auto;html=1;" parent="1" source="oHuWamwqqKZyfX19s7B0-63" target="oHuWamwqqKZyfX19s7B0-94" edge="1">
          <mxGeometry relative="1" as="geometry">
            <mxPoint x="380" y="760" as="targetPoint" />
          </mxGeometry>
        </mxCell>
        <mxCell id="oHuWamwqqKZyfX19s7B0-63" value="&lt;span style=&quot;border-bottom: 1px dotted&quot;&gt;From/AirportID&lt;/span&gt;" style="ellipse;whiteSpace=wrap;html=1;align=center;fillColor=#ffcccc;strokeColor=#36393d;" parent="1" vertex="1">
          <mxGeometry x="845" y="760" width="100" height="40" as="geometry" />
        </mxCell>
        <mxCell id="oHuWamwqqKZyfX19s7B0-91" value="" style="edgeStyle=orthogonalEdgeStyle;rounded=0;orthogonalLoop=1;jettySize=auto;html=1;entryX=0.5;entryY=1;entryDx=0;entryDy=0;" parent="1" source="oHuWamwqqKZyfX19s7B0-64" target="oHuWamwqqKZyfX19s7B0-94" edge="1">
          <mxGeometry relative="1" as="geometry">
            <mxPoint x="310" y="790" as="targetPoint" />
          </mxGeometry>
        </mxCell>
        <mxCell id="oHuWamwqqKZyfX19s7B0-64" value="&lt;span style=&quot;border-bottom: 1px dotted&quot;&gt;To/AirportID&lt;/span&gt;" style="ellipse;whiteSpace=wrap;html=1;align=center;fillColor=#ffcccc;strokeColor=#36393d;" parent="1" vertex="1">
          <mxGeometry x="845" y="800" width="100" height="40" as="geometry" />
        </mxCell>
        <mxCell id="oHuWamwqqKZyfX19s7B0-92" value="" style="edgeStyle=orthogonalEdgeStyle;rounded=0;orthogonalLoop=1;jettySize=auto;html=1;entryX=0.5;entryY=1;entryDx=0;entryDy=0;" parent="1" source="oHuWamwqqKZyfX19s7B0-65" target="oHuWamwqqKZyfX19s7B0-94" edge="1">
          <mxGeometry relative="1" as="geometry">
            <mxPoint x="310" y="790" as="targetPoint" />
          </mxGeometry>
        </mxCell>
        <mxCell id="oHuWamwqqKZyfX19s7B0-65" value="Duration" style="ellipse;whiteSpace=wrap;html=1;align=center;fillColor=#ffcccc;strokeColor=#36393d;" parent="1" vertex="1">
          <mxGeometry x="845" y="850" width="100" height="40" as="geometry" />
        </mxCell>
        <mxCell id="oHuWamwqqKZyfX19s7B0-85" value="" style="edgeStyle=orthogonalEdgeStyle;rounded=0;orthogonalLoop=1;jettySize=auto;html=1;entryX=0.5;entryY=1;entryDx=0;entryDy=0;" parent="1" source="oHuWamwqqKZyfX19s7B0-66" target="oHuWamwqqKZyfX19s7B0-94" edge="1">
          <mxGeometry relative="1" as="geometry">
            <mxPoint x="310" y="790" as="targetPoint" />
          </mxGeometry>
        </mxCell>
        <mxCell id="oHuWamwqqKZyfX19s7B0-66" value="TakesOff/time" style="ellipse;whiteSpace=wrap;html=1;align=center;fillColor=#ffcccc;strokeColor=#36393d;" parent="1" vertex="1">
          <mxGeometry x="840" y="930" width="100" height="40" as="geometry" />
        </mxCell>
        <mxCell id="oHuWamwqqKZyfX19s7B0-86" value="" style="edgeStyle=orthogonalEdgeStyle;rounded=0;orthogonalLoop=1;jettySize=auto;html=1;entryX=0.5;entryY=1;entryDx=0;entryDy=0;" parent="1" source="oHuWamwqqKZyfX19s7B0-67" target="oHuWamwqqKZyfX19s7B0-94" edge="1">
          <mxGeometry relative="1" as="geometry">
            <mxPoint x="319.3800000000001" y="786.6400000000001" as="targetPoint" />
          </mxGeometry>
        </mxCell>
        <mxCell id="oHuWamwqqKZyfX19s7B0-67" value="Arrive/time" style="ellipse;whiteSpace=wrap;html=1;align=center;fillColor=#ffcccc;strokeColor=#36393d;" parent="1" vertex="1">
          <mxGeometry x="840" y="890" width="100" height="40" as="geometry" />
        </mxCell>
        <mxCell id="oHuWamwqqKZyfX19s7B0-68" value="Customer" style="shape=ext;margin=3;double=1;whiteSpace=wrap;html=1;align=center;fillColor=#dae8fc;gradientColor=#7ea6e0;strokeColor=#6c8ebf;" parent="1" vertex="1">
          <mxGeometry x="-825" y="760" width="130" height="60" as="geometry" />
        </mxCell>
        <mxCell id="oHuWamwqqKZyfX19s7B0-381" value="" style="edgeStyle=orthogonalEdgeStyle;rounded=0;orthogonalLoop=1;jettySize=auto;html=1;" parent="1" source="oHuWamwqqKZyfX19s7B0-71" target="oHuWamwqqKZyfX19s7B0-68" edge="1">
          <mxGeometry relative="1" as="geometry">
            <Array as="points">
              <mxPoint x="-880" y="600" />
              <mxPoint x="-880" y="790" />
            </Array>
          </mxGeometry>
        </mxCell>
        <mxCell id="oHuWamwqqKZyfX19s7B0-71" value="ID" style="ellipse;whiteSpace=wrap;html=1;align=center;fontStyle=4;fillColor=#ffcccc;strokeColor=#36393d;" parent="1" vertex="1">
          <mxGeometry x="-1070" y="580" width="100" height="40" as="geometry" />
        </mxCell>
        <mxCell id="oHuWamwqqKZyfX19s7B0-222" value="" style="edgeStyle=orthogonalEdgeStyle;rounded=0;orthogonalLoop=1;jettySize=auto;html=1;" parent="1" source="oHuWamwqqKZyfX19s7B0-73" target="oHuWamwqqKZyfX19s7B0-68" edge="1">
          <mxGeometry relative="1" as="geometry">
            <Array as="points">
              <mxPoint x="-880" y="840" />
              <mxPoint x="-880" y="790" />
            </Array>
          </mxGeometry>
        </mxCell>
        <mxCell id="oHuWamwqqKZyfX19s7B0-73" value="&lt;span style=&quot;border-bottom: 1px dotted&quot;&gt;DocumentID&lt;/span&gt;" style="ellipse;whiteSpace=wrap;html=1;align=center;fillColor=#ffcccc;strokeColor=#36393d;" parent="1" vertex="1">
          <mxGeometry x="-1070" y="820" width="100" height="40" as="geometry" />
        </mxCell>
        <mxCell id="oHuWamwqqKZyfX19s7B0-223" value="" style="edgeStyle=orthogonalEdgeStyle;rounded=0;orthogonalLoop=1;jettySize=auto;html=1;" parent="1" source="oHuWamwqqKZyfX19s7B0-74" target="oHuWamwqqKZyfX19s7B0-68" edge="1">
          <mxGeometry relative="1" as="geometry">
            <Array as="points">
              <mxPoint x="-880" y="655" />
              <mxPoint x="-880" y="790" />
            </Array>
          </mxGeometry>
        </mxCell>
        <mxCell id="oHuWamwqqKZyfX19s7B0-74" value="FirstName" style="ellipse;whiteSpace=wrap;html=1;align=center;fillColor=#ffcccc;strokeColor=#36393d;" parent="1" vertex="1">
          <mxGeometry x="-1070" y="635" width="100" height="40" as="geometry" />
        </mxCell>
        <mxCell id="oHuWamwqqKZyfX19s7B0-224" value="" style="edgeStyle=orthogonalEdgeStyle;rounded=0;orthogonalLoop=1;jettySize=auto;html=1;" parent="1" source="oHuWamwqqKZyfX19s7B0-75" target="oHuWamwqqKZyfX19s7B0-68" edge="1">
          <mxGeometry relative="1" as="geometry">
            <Array as="points">
              <mxPoint x="-880" y="703" />
              <mxPoint x="-880" y="790" />
            </Array>
          </mxGeometry>
        </mxCell>
        <mxCell id="oHuWamwqqKZyfX19s7B0-75" value="LastName" style="ellipse;whiteSpace=wrap;html=1;align=center;fillColor=#ffcccc;strokeColor=#36393d;" parent="1" vertex="1">
          <mxGeometry x="-1070" y="680" width="100" height="45" as="geometry" />
        </mxCell>
        <mxCell id="oHuWamwqqKZyfX19s7B0-225" value="" style="edgeStyle=orthogonalEdgeStyle;rounded=0;orthogonalLoop=1;jettySize=auto;html=1;" parent="1" source="oHuWamwqqKZyfX19s7B0-76" target="oHuWamwqqKZyfX19s7B0-68" edge="1">
          <mxGeometry relative="1" as="geometry">
            <Array as="points">
              <mxPoint x="-880" y="890" />
              <mxPoint x="-880" y="790" />
            </Array>
          </mxGeometry>
        </mxCell>
        <mxCell id="oHuWamwqqKZyfX19s7B0-76" value="Gender" style="ellipse;whiteSpace=wrap;html=1;align=center;fillColor=#ffcccc;strokeColor=#36393d;" parent="1" vertex="1">
          <mxGeometry x="-1070" y="870" width="100" height="40" as="geometry" />
        </mxCell>
        <mxCell id="oHuWamwqqKZyfX19s7B0-226" value="" style="edgeStyle=orthogonalEdgeStyle;rounded=0;orthogonalLoop=1;jettySize=auto;html=1;" parent="1" source="oHuWamwqqKZyfX19s7B0-77" target="oHuWamwqqKZyfX19s7B0-68" edge="1">
          <mxGeometry relative="1" as="geometry">
            <Array as="points">
              <mxPoint x="-880" y="930" />
              <mxPoint x="-880" y="790" />
            </Array>
          </mxGeometry>
        </mxCell>
        <mxCell id="oHuWamwqqKZyfX19s7B0-77" value="DateOfBirth" style="ellipse;whiteSpace=wrap;html=1;align=center;fillColor=#ffcccc;strokeColor=#36393d;" parent="1" vertex="1">
          <mxGeometry x="-1070" y="910" width="100" height="40" as="geometry" />
        </mxCell>
        <mxCell id="oHuWamwqqKZyfX19s7B0-385" value="" style="edgeStyle=orthogonalEdgeStyle;rounded=0;orthogonalLoop=1;jettySize=auto;html=1;entryX=0;entryY=0.5;entryDx=0;entryDy=0;" parent="1" source="oHuWamwqqKZyfX19s7B0-80" target="oHuWamwqqKZyfX19s7B0-68" edge="1">
          <mxGeometry relative="1" as="geometry">
            <mxPoint x="-790" y="790" as="targetPoint" />
          </mxGeometry>
        </mxCell>
        <mxCell id="oHuWamwqqKZyfX19s7B0-80" value="Email" style="ellipse;whiteSpace=wrap;html=1;align=center;fillColor=#ffcccc;strokeColor=#36393d;" parent="1" vertex="1">
          <mxGeometry x="-1070" y="770" width="100" height="40" as="geometry" />
        </mxCell>
        <mxCell id="MjYStLLJE5w2eZP11G4p-81" value="" style="edgeStyle=orthogonalEdgeStyle;rounded=0;orthogonalLoop=1;jettySize=auto;html=1;" parent="1" source="oHuWamwqqKZyfX19s7B0-81" target="oHuWamwqqKZyfX19s7B0-68" edge="1">
          <mxGeometry relative="1" as="geometry">
            <Array as="points">
              <mxPoint x="-880" y="745" />
              <mxPoint x="-880" y="790" />
            </Array>
          </mxGeometry>
        </mxCell>
        <mxCell id="oHuWamwqqKZyfX19s7B0-81" value="Phone" style="ellipse;whiteSpace=wrap;html=1;align=center;fillColor=#ffcccc;strokeColor=#36393d;" parent="1" vertex="1">
          <mxGeometry x="-1070" y="725" width="100" height="40" as="geometry" />
        </mxCell>
        <mxCell id="oHuWamwqqKZyfX19s7B0-94" value="Flight" style="shape=ext;margin=3;double=1;whiteSpace=wrap;html=1;align=center;fillColor=#dae8fc;gradientColor=#7ea6e0;strokeColor=#6c8ebf;" parent="1" vertex="1">
          <mxGeometry x="542.5" y="605" width="195" height="70" as="geometry" />
        </mxCell>
        <mxCell id="oHuWamwqqKZyfX19s7B0-97" value="" style="edgeStyle=orthogonalEdgeStyle;rounded=0;orthogonalLoop=1;jettySize=auto;html=1;exitX=1;exitY=0.5;exitDx=0;exitDy=0;entryX=0;entryY=0.5;entryDx=0;entryDy=0;" parent="1" source="oHuWamwqqKZyfX19s7B0-96" target="S5t8gtHT40wTGtQgQojj-5" edge="1">
          <mxGeometry relative="1" as="geometry">
            <Array as="points">
              <mxPoint x="-160" y="820" />
              <mxPoint x="-160" y="900" />
            </Array>
            <mxPoint x="-80" y="900" as="targetPoint" />
          </mxGeometry>
        </mxCell>
        <mxCell id="oHuWamwqqKZyfX19s7B0-96" value="ID" style="ellipse;whiteSpace=wrap;html=1;align=center;fontStyle=4;fillColor=#ffcccc;strokeColor=#36393d;" parent="1" vertex="1">
          <mxGeometry x="-350" y="800" width="100" height="40" as="geometry" />
        </mxCell>
        <mxCell id="oHuWamwqqKZyfX19s7B0-100" value="" style="edgeStyle=orthogonalEdgeStyle;rounded=0;orthogonalLoop=1;jettySize=auto;html=1;entryX=0;entryY=0.5;entryDx=0;entryDy=0;" parent="1" source="oHuWamwqqKZyfX19s7B0-98" target="S5t8gtHT40wTGtQgQojj-5" edge="1">
          <mxGeometry relative="1" as="geometry">
            <Array as="points">
              <mxPoint x="-160" y="860" />
              <mxPoint x="-160" y="900" />
            </Array>
            <mxPoint x="-80" y="900" as="targetPoint" />
          </mxGeometry>
        </mxCell>
        <mxCell id="oHuWamwqqKZyfX19s7B0-98" value="&lt;span style=&quot;border-bottom: 1px dotted&quot;&gt;Customer ID&lt;/span&gt;" style="ellipse;whiteSpace=wrap;html=1;align=center;fillColor=#ffcccc;strokeColor=#36393d;" parent="1" vertex="1">
          <mxGeometry x="-350" y="840" width="100" height="40" as="geometry" />
        </mxCell>
        <mxCell id="oHuWamwqqKZyfX19s7B0-101" value="" style="edgeStyle=orthogonalEdgeStyle;rounded=0;orthogonalLoop=1;jettySize=auto;html=1;entryX=0;entryY=0.5;entryDx=0;entryDy=0;" parent="1" source="oHuWamwqqKZyfX19s7B0-99" target="S5t8gtHT40wTGtQgQojj-5" edge="1">
          <mxGeometry relative="1" as="geometry">
            <mxPoint x="-80" y="900" as="targetPoint" />
          </mxGeometry>
        </mxCell>
        <mxCell id="oHuWamwqqKZyfX19s7B0-99" value="&lt;span style=&quot;border-bottom: 1px dotted&quot;&gt;Flight ID&lt;/span&gt;" style="ellipse;whiteSpace=wrap;html=1;align=center;fillColor=#ffcccc;strokeColor=#36393d;" parent="1" vertex="1">
          <mxGeometry x="-350" y="890" width="100" height="40" as="geometry" />
        </mxCell>
        <mxCell id="oHuWamwqqKZyfX19s7B0-104" value="" style="edgeStyle=orthogonalEdgeStyle;rounded=0;orthogonalLoop=1;jettySize=auto;html=1;entryX=0;entryY=0.5;entryDx=0;entryDy=0;exitX=1;exitY=0.5;exitDx=0;exitDy=0;" parent="1" source="oHuWamwqqKZyfX19s7B0-365" target="S5t8gtHT40wTGtQgQojj-5" edge="1">
          <mxGeometry relative="1" as="geometry">
            <mxPoint x="120" y="790" as="sourcePoint" />
            <mxPoint x="-80" y="900" as="targetPoint" />
            <Array as="points">
              <mxPoint x="-160" y="950" />
              <mxPoint x="-160" y="900" />
            </Array>
          </mxGeometry>
        </mxCell>
        <mxCell id="oHuWamwqqKZyfX19s7B0-106" value="" style="edgeStyle=orthogonalEdgeStyle;rounded=0;orthogonalLoop=1;jettySize=auto;html=1;entryX=1;entryY=0.5;entryDx=0;entryDy=0;exitX=0;exitY=0.5;exitDx=0;exitDy=0;" parent="1" source="oHuWamwqqKZyfX19s7B0-105" edge="1">
          <mxGeometry relative="1" as="geometry">
            <Array as="points">
              <mxPoint x="108" y="780" />
              <mxPoint x="108" y="900" />
            </Array>
            <mxPoint x="177.5" y="780" as="sourcePoint" />
            <mxPoint x="-7.5" y="900" as="targetPoint" />
          </mxGeometry>
        </mxCell>
        <mxCell id="oHuWamwqqKZyfX19s7B0-105" value="Seat" style="ellipse;whiteSpace=wrap;html=1;align=center;fillColor=#ffcccc;strokeColor=#36393d;" parent="1" vertex="1">
          <mxGeometry x="200" y="760" width="100" height="40" as="geometry" />
        </mxCell>
        <mxCell id="oHuWamwqqKZyfX19s7B0-108" value="" style="edgeStyle=orthogonalEdgeStyle;rounded=0;orthogonalLoop=1;jettySize=auto;html=1;entryX=1;entryY=0.5;entryDx=0;entryDy=0;" parent="1" source="oHuWamwqqKZyfX19s7B0-107" target="S5t8gtHT40wTGtQgQojj-5" edge="1">
          <mxGeometry relative="1" as="geometry">
            <Array as="points">
              <mxPoint x="110" y="820" />
              <mxPoint x="110" y="900" />
            </Array>
            <mxPoint x="60" y="900" as="targetPoint" />
          </mxGeometry>
        </mxCell>
        <mxCell id="oHuWamwqqKZyfX19s7B0-107" value="Ticket Number" style="ellipse;whiteSpace=wrap;html=1;align=center;dashed=1;fillColor=#ffcccc;strokeColor=#36393d;" parent="1" vertex="1">
          <mxGeometry x="200" y="800" width="100" height="40" as="geometry" />
        </mxCell>
        <mxCell id="oHuWamwqqKZyfX19s7B0-110" value="" style="edgeStyle=orthogonalEdgeStyle;rounded=0;orthogonalLoop=1;jettySize=auto;html=1;entryX=0;entryY=0.5;entryDx=0;entryDy=0;" parent="1" source="oHuWamwqqKZyfX19s7B0-109" target="S5t8gtHT40wTGtQgQojj-5" edge="1">
          <mxGeometry relative="1" as="geometry">
            <Array as="points">
              <mxPoint x="-160" y="990" />
              <mxPoint x="-160" y="900" />
            </Array>
            <mxPoint x="-80" y="900" as="targetPoint" />
          </mxGeometry>
        </mxCell>
        <mxCell id="oHuWamwqqKZyfX19s7B0-109" value="Price" style="ellipse;whiteSpace=wrap;html=1;align=center;dashed=1;fillColor=#ffcccc;strokeColor=#36393d;" parent="1" vertex="1">
          <mxGeometry x="-350" y="970" width="100" height="40" as="geometry" />
        </mxCell>
        <mxCell id="oHuWamwqqKZyfX19s7B0-112" value="" style="edgeStyle=orthogonalEdgeStyle;rounded=0;orthogonalLoop=1;jettySize=auto;html=1;entryX=1;entryY=0.5;entryDx=0;entryDy=0;" parent="1" source="oHuWamwqqKZyfX19s7B0-111" target="S5t8gtHT40wTGtQgQojj-5" edge="1">
          <mxGeometry relative="1" as="geometry">
            <mxPoint x="60" y="900" as="targetPoint" />
            <Array as="points">
              <mxPoint x="108" y="860" />
              <mxPoint x="108" y="900" />
            </Array>
          </mxGeometry>
        </mxCell>
        <mxCell id="oHuWamwqqKZyfX19s7B0-111" value="Date Of Reservation" style="ellipse;whiteSpace=wrap;html=1;align=center;fillColor=#ffcccc;strokeColor=#36393d;" parent="1" vertex="1">
          <mxGeometry x="200" y="840" width="100" height="40" as="geometry" />
        </mxCell>
        <mxCell id="oHuWamwqqKZyfX19s7B0-114" value="" style="edgeStyle=orthogonalEdgeStyle;rounded=0;orthogonalLoop=1;jettySize=auto;html=1;entryX=1;entryY=0.5;entryDx=0;entryDy=0;" parent="1" source="oHuWamwqqKZyfX19s7B0-113" target="S5t8gtHT40wTGtQgQojj-5" edge="1">
          <mxGeometry relative="1" as="geometry">
            <mxPoint x="60" y="900" as="targetPoint" />
          </mxGeometry>
        </mxCell>
        <mxCell id="oHuWamwqqKZyfX19s7B0-113" value="Rank" style="ellipse;whiteSpace=wrap;html=1;align=center;fillColor=#ffcccc;strokeColor=#36393d;" parent="1" vertex="1">
          <mxGeometry x="200" y="880" width="100" height="40" as="geometry" />
        </mxCell>
        <mxCell id="oHuWamwqqKZyfX19s7B0-116" value="" style="edgeStyle=orthogonalEdgeStyle;rounded=0;orthogonalLoop=1;jettySize=auto;html=1;entryX=1;entryY=0.5;entryDx=0;entryDy=0;" parent="1" source="oHuWamwqqKZyfX19s7B0-115" target="S5t8gtHT40wTGtQgQojj-5" edge="1">
          <mxGeometry relative="1" as="geometry">
            <mxPoint x="60" y="900" as="targetPoint" />
          </mxGeometry>
        </mxCell>
        <mxCell id="oHuWamwqqKZyfX19s7B0-115" value="&lt;span style=&quot;border-bottom: 1px dotted&quot;&gt;Insurance ID&lt;/span&gt;" style="ellipse;whiteSpace=wrap;html=1;align=center;fillColor=#ffcccc;strokeColor=#36393d;" parent="1" vertex="1">
          <mxGeometry x="200" y="920" width="100" height="40" as="geometry" />
        </mxCell>
        <mxCell id="oHuWamwqqKZyfX19s7B0-117" value="&lt;span style=&quot;border-bottom: 1px dotted&quot;&gt;Luggage ID&lt;/span&gt;" style="ellipse;whiteSpace=wrap;html=1;align=center;fillColor=#ffcccc;strokeColor=#36393d;" parent="1" vertex="1">
          <mxGeometry x="200" y="970" width="100" height="40" as="geometry" />
        </mxCell>
        <mxCell id="oHuWamwqqKZyfX19s7B0-119" value="Luggage" style="whiteSpace=wrap;html=1;align=center;fillColor=#dae8fc;gradientColor=#7ea6e0;strokeColor=#6c8ebf;" parent="1" vertex="1">
          <mxGeometry x="815" y="1475" width="130" height="50" as="geometry" />
        </mxCell>
        <mxCell id="oHuWamwqqKZyfX19s7B0-123" value="" style="edgeStyle=orthogonalEdgeStyle;rounded=0;orthogonalLoop=1;jettySize=auto;html=1;exitX=0;exitY=0.5;exitDx=0;exitDy=0;" parent="1" source="oHuWamwqqKZyfX19s7B0-122" target="oHuWamwqqKZyfX19s7B0-119" edge="1">
          <mxGeometry relative="1" as="geometry" />
        </mxCell>
        <mxCell id="oHuWamwqqKZyfX19s7B0-122" value="Name" style="ellipse;whiteSpace=wrap;html=1;align=center;fillColor=#ffcccc;strokeColor=#36393d;" parent="1" vertex="1">
          <mxGeometry x="930" y="1545" width="100" height="40" as="geometry" />
        </mxCell>
        <mxCell id="oHuWamwqqKZyfX19s7B0-125" value="" style="edgeStyle=orthogonalEdgeStyle;rounded=0;orthogonalLoop=1;jettySize=auto;html=1;exitX=1;exitY=0.5;exitDx=0;exitDy=0;" parent="1" source="oHuWamwqqKZyfX19s7B0-120" target="oHuWamwqqKZyfX19s7B0-119" edge="1">
          <mxGeometry relative="1" as="geometry" />
        </mxCell>
        <mxCell id="oHuWamwqqKZyfX19s7B0-227" value="" style="edgeStyle=orthogonalEdgeStyle;rounded=0;orthogonalLoop=1;jettySize=auto;html=1;" parent="1" source="oHuWamwqqKZyfX19s7B0-124" target="oHuWamwqqKZyfX19s7B0-119" edge="1">
          <mxGeometry relative="1" as="geometry" />
        </mxCell>
        <mxCell id="oHuWamwqqKZyfX19s7B0-124" value="Max Size" style="ellipse;whiteSpace=wrap;html=1;align=center;fillColor=#ffcccc;strokeColor=#36393d;" parent="1" vertex="1">
          <mxGeometry x="830" y="1590" width="100" height="40" as="geometry" />
        </mxCell>
        <mxCell id="oHuWamwqqKZyfX19s7B0-120" value="ID" style="ellipse;whiteSpace=wrap;html=1;align=center;fontStyle=4;fillColor=#ffcccc;strokeColor=#36393d;" parent="1" vertex="1">
          <mxGeometry x="745" y="1545" width="100" height="40" as="geometry" />
        </mxCell>
        <mxCell id="oHuWamwqqKZyfX19s7B0-130" value="" style="edgeStyle=orthogonalEdgeStyle;rounded=0;orthogonalLoop=1;jettySize=auto;html=1;entryX=0.75;entryY=1;entryDx=0;entryDy=0;" parent="1" source="oHuWamwqqKZyfX19s7B0-129" target="4Eenig6uLWs6y-KD1k0Y-2" edge="1">
          <mxGeometry relative="1" as="geometry">
            <Array as="points">
              <mxPoint x="1353" y="1565" />
              <mxPoint x="1353" y="1520" />
            </Array>
            <mxPoint x="1340.0000000000005" y="1530" as="targetPoint" />
          </mxGeometry>
        </mxCell>
        <mxCell id="oHuWamwqqKZyfX19s7B0-403" value="" style="edgeStyle=orthogonalEdgeStyle;rounded=0;orthogonalLoop=1;jettySize=auto;html=1;entryX=0.75;entryY=1;entryDx=0;entryDy=0;exitX=1;exitY=0.5;exitDx=0;exitDy=0;" parent="1" source="oHuWamwqqKZyfX19s7B0-131" target="4Eenig6uLWs6y-KD1k0Y-2" edge="1">
          <mxGeometry relative="1" as="geometry">
            <Array as="points">
              <mxPoint x="1353" y="1610" />
              <mxPoint x="1353" y="1520" />
            </Array>
            <mxPoint x="1339.9999999999995" y="1530" as="targetPoint" />
          </mxGeometry>
        </mxCell>
        <mxCell id="oHuWamwqqKZyfX19s7B0-131" value="&lt;span style=&quot;border-bottom: 1px dotted&quot;&gt;Luggage ID&lt;/span&gt;" style="ellipse;whiteSpace=wrap;html=1;align=center;fillColor=#ffcccc;strokeColor=#36393d;" parent="1" vertex="1">
          <mxGeometry x="1230" y="1590" width="100" height="40" as="geometry" />
        </mxCell>
        <mxCell id="oHuWamwqqKZyfX19s7B0-404" value="" style="edgeStyle=orthogonalEdgeStyle;rounded=0;orthogonalLoop=1;jettySize=auto;html=1;entryX=0.75;entryY=1;entryDx=0;entryDy=0;exitX=0;exitY=0.5;exitDx=0;exitDy=0;" parent="1" source="oHuWamwqqKZyfX19s7B0-133" target="4Eenig6uLWs6y-KD1k0Y-2" edge="1">
          <mxGeometry relative="1" as="geometry">
            <Array as="points">
              <mxPoint x="1353" y="1610" />
              <mxPoint x="1353" y="1520" />
            </Array>
            <mxPoint x="1339.9999999999995" y="1530" as="targetPoint" />
          </mxGeometry>
        </mxCell>
        <mxCell id="oHuWamwqqKZyfX19s7B0-133" value="&lt;span style=&quot;border-bottom: 1px dotted&quot;&gt;Airline ID&lt;/span&gt;" style="ellipse;whiteSpace=wrap;html=1;align=center;fillColor=#ffcccc;strokeColor=#36393d;" parent="1" vertex="1">
          <mxGeometry x="1370" y="1590" width="100" height="40" as="geometry" />
        </mxCell>
        <mxCell id="oHuWamwqqKZyfX19s7B0-136" value="" style="edgeStyle=orthogonalEdgeStyle;rounded=0;orthogonalLoop=1;jettySize=auto;html=1;entryX=1;entryY=0.5;entryDx=0;entryDy=0;" parent="1" source="oHuWamwqqKZyfX19s7B0-117" target="S5t8gtHT40wTGtQgQojj-5" edge="1">
          <mxGeometry relative="1" as="geometry">
            <mxPoint x="110" y="1110" as="sourcePoint" />
            <mxPoint x="60" y="900" as="targetPoint" />
          </mxGeometry>
        </mxCell>
        <mxCell id="oHuWamwqqKZyfX19s7B0-137" value="" style="edgeStyle=orthogonalEdgeStyle;rounded=0;orthogonalLoop=1;jettySize=auto;html=1;exitX=1;exitY=0.5;exitDx=0;exitDy=0;entryX=0.75;entryY=1;entryDx=0;entryDy=0;" parent="1" source="oHuWamwqqKZyfX19s7B0-135" target="4Eenig6uLWs6y-KD1k0Y-2" edge="1">
          <mxGeometry relative="1" as="geometry">
            <mxPoint x="1340.0000000000005" y="1530" as="targetPoint" />
          </mxGeometry>
        </mxCell>
        <mxCell id="oHuWamwqqKZyfX19s7B0-135" value="Price" style="ellipse;whiteSpace=wrap;html=1;align=center;fillColor=#ffcccc;strokeColor=#36393d;" parent="1" vertex="1">
          <mxGeometry x="1230" y="1545" width="100" height="40" as="geometry" />
        </mxCell>
        <mxCell id="oHuWamwqqKZyfX19s7B0-140" value="" style="edgeStyle=orthogonalEdgeStyle;rounded=0;orthogonalLoop=1;jettySize=auto;html=1;entryX=0.5;entryY=1;entryDx=0;entryDy=0;" parent="1" source="oHuWamwqqKZyfX19s7B0-139" target="MjYStLLJE5w2eZP11G4p-2" edge="1">
          <mxGeometry relative="1" as="geometry">
            <mxPoint x="-10" y="1650" as="targetPoint" />
          </mxGeometry>
        </mxCell>
        <mxCell id="oHuWamwqqKZyfX19s7B0-139" value="ID" style="ellipse;whiteSpace=wrap;html=1;align=center;fontStyle=4;fillColor=#ffcccc;strokeColor=#36393d;" parent="1" vertex="1">
          <mxGeometry x="60" y="1680" width="100" height="40" as="geometry" />
        </mxCell>
        <mxCell id="oHuWamwqqKZyfX19s7B0-142" value="" style="edgeStyle=orthogonalEdgeStyle;rounded=0;orthogonalLoop=1;jettySize=auto;html=1;entryX=0.5;entryY=1;entryDx=0;entryDy=0;" parent="1" source="oHuWamwqqKZyfX19s7B0-141" target="MjYStLLJE5w2eZP11G4p-2" edge="1">
          <mxGeometry relative="1" as="geometry">
            <mxPoint x="-10" y="1650" as="targetPoint" />
          </mxGeometry>
        </mxCell>
        <mxCell id="oHuWamwqqKZyfX19s7B0-141" value="Type" style="ellipse;whiteSpace=wrap;html=1;align=center;fillColor=#ffcccc;strokeColor=#36393d;" parent="1" vertex="1">
          <mxGeometry x="-175" y="1730" width="100" height="40" as="geometry" />
        </mxCell>
        <mxCell id="oHuWamwqqKZyfX19s7B0-146" value="" style="edgeStyle=orthogonalEdgeStyle;rounded=0;orthogonalLoop=1;jettySize=auto;html=1;" parent="1" source="oHuWamwqqKZyfX19s7B0-145" target="oHuWamwqqKZyfX19s7B0-141" edge="1">
          <mxGeometry relative="1" as="geometry" />
        </mxCell>
        <mxCell id="oHuWamwqqKZyfX19s7B0-373" value="" style="edgeStyle=orthogonalEdgeStyle;rounded=0;orthogonalLoop=1;jettySize=auto;html=1;entryX=0.5;entryY=1;entryDx=0;entryDy=0;" parent="1" source="oHuWamwqqKZyfX19s7B0-147" target="MjYStLLJE5w2eZP11G4p-5" edge="1">
          <mxGeometry relative="1" as="geometry">
            <mxPoint x="-10" y="1650" as="targetPoint" />
            <Array as="points">
              <mxPoint x="540" y="1730" />
            </Array>
          </mxGeometry>
        </mxCell>
        <mxCell id="oHuWamwqqKZyfX19s7B0-147" value="Name" style="ellipse;whiteSpace=wrap;html=1;align=center;fillColor=#ffcccc;strokeColor=#36393d;" parent="1" vertex="1">
          <mxGeometry x="390" y="1710" width="100" height="40" as="geometry" />
        </mxCell>
        <mxCell id="oHuWamwqqKZyfX19s7B0-247" value="" style="edgeStyle=orthogonalEdgeStyle;rounded=0;orthogonalLoop=1;jettySize=auto;html=1;entryX=0.5;entryY=1;entryDx=0;entryDy=0;" parent="1" source="oHuWamwqqKZyfX19s7B0-151" target="MjYStLLJE5w2eZP11G4p-2" edge="1">
          <mxGeometry relative="1" as="geometry">
            <mxPoint x="-10" y="1650" as="targetPoint" />
          </mxGeometry>
        </mxCell>
        <mxCell id="oHuWamwqqKZyfX19s7B0-151" value="&lt;span style=&quot;border-bottom: 1px dotted&quot;&gt;Country ID&lt;/span&gt;" style="ellipse;whiteSpace=wrap;html=1;align=center;fillColor=#ffcccc;strokeColor=#36393d;" parent="1" vertex="1">
          <mxGeometry x="60" y="1780" width="100" height="40" as="geometry" />
        </mxCell>
        <mxCell id="oHuWamwqqKZyfX19s7B0-154" value="" style="edgeStyle=orthogonalEdgeStyle;rounded=0;orthogonalLoop=1;jettySize=auto;html=1;entryX=0.5;entryY=1;entryDx=0;entryDy=0;" parent="1" source="oHuWamwqqKZyfX19s7B0-153" target="MjYStLLJE5w2eZP11G4p-2" edge="1">
          <mxGeometry relative="1" as="geometry">
            <mxPoint x="-10" y="1650" as="targetPoint" />
          </mxGeometry>
        </mxCell>
        <mxCell id="oHuWamwqqKZyfX19s7B0-153" value="Address" style="ellipse;whiteSpace=wrap;html=1;align=center;fillColor=#ffcccc;strokeColor=#36393d;" parent="1" vertex="1">
          <mxGeometry x="-180" y="1780" width="100" height="40" as="geometry" />
        </mxCell>
        <mxCell id="oHuWamwqqKZyfX19s7B0-156" value="" style="edgeStyle=orthogonalEdgeStyle;rounded=0;orthogonalLoop=1;jettySize=auto;html=1;entryX=0.5;entryY=1;entryDx=0;entryDy=0;" parent="1" source="oHuWamwqqKZyfX19s7B0-155" target="MjYStLLJE5w2eZP11G4p-2" edge="1">
          <mxGeometry relative="1" as="geometry">
            <mxPoint x="-10" y="1650" as="targetPoint" />
          </mxGeometry>
        </mxCell>
        <mxCell id="oHuWamwqqKZyfX19s7B0-155" value="&lt;span style=&quot;border-bottom: 1px dotted&quot;&gt;Card ID&lt;/span&gt;" style="ellipse;whiteSpace=wrap;html=1;align=center;fillColor=#ffcccc;strokeColor=#36393d;" parent="1" vertex="1">
          <mxGeometry x="-180" y="1680" width="100" height="40" as="geometry" />
        </mxCell>
        <mxCell id="oHuWamwqqKZyfX19s7B0-159" value="" style="edgeStyle=orthogonalEdgeStyle;rounded=0;orthogonalLoop=1;jettySize=auto;html=1;entryX=0.5;entryY=1;entryDx=0;entryDy=0;" parent="1" source="oHuWamwqqKZyfX19s7B0-158" target="MjYStLLJE5w2eZP11G4p-1" edge="1">
          <mxGeometry relative="1" as="geometry">
            <mxPoint x="425" y="1655" as="targetPoint" />
            <Array as="points">
              <mxPoint x="-470" y="1770" />
            </Array>
          </mxGeometry>
        </mxCell>
        <mxCell id="oHuWamwqqKZyfX19s7B0-158" value="ID" style="ellipse;whiteSpace=wrap;html=1;align=center;fontStyle=4;fillColor=#ffcccc;strokeColor=#36393d;" parent="1" vertex="1">
          <mxGeometry x="-620" y="1750" width="100" height="40" as="geometry" />
        </mxCell>
        <mxCell id="oHuWamwqqKZyfX19s7B0-161" value="" style="edgeStyle=orthogonalEdgeStyle;rounded=0;orthogonalLoop=1;jettySize=auto;html=1;entryX=0.5;entryY=1;entryDx=0;entryDy=0;exitX=0;exitY=0.5;exitDx=0;exitDy=0;" parent="1" source="oHuWamwqqKZyfX19s7B0-160" target="MjYStLLJE5w2eZP11G4p-1" edge="1">
          <mxGeometry relative="1" as="geometry">
            <mxPoint x="425" y="1655" as="targetPoint" />
          </mxGeometry>
        </mxCell>
        <mxCell id="oHuWamwqqKZyfX19s7B0-160" value="Card Number" style="ellipse;whiteSpace=wrap;html=1;align=center;fillColor=#ffcccc;strokeColor=#36393d;" parent="1" vertex="1">
          <mxGeometry x="-440" y="1700" width="100" height="40" as="geometry" />
        </mxCell>
        <mxCell id="oHuWamwqqKZyfX19s7B0-163" value="" style="edgeStyle=orthogonalEdgeStyle;rounded=0;orthogonalLoop=1;jettySize=auto;html=1;entryX=0.5;entryY=1;entryDx=0;entryDy=0;exitX=1;exitY=0.5;exitDx=0;exitDy=0;" parent="1" source="oHuWamwqqKZyfX19s7B0-162" target="MjYStLLJE5w2eZP11G4p-1" edge="1">
          <mxGeometry relative="1" as="geometry">
            <mxPoint x="425" y="1655" as="targetPoint" />
            <Array as="points">
              <mxPoint x="-470" y="1720" />
            </Array>
          </mxGeometry>
        </mxCell>
        <mxCell id="oHuWamwqqKZyfX19s7B0-162" value="Validity" style="ellipse;whiteSpace=wrap;html=1;align=center;fillColor=#ffcccc;strokeColor=#36393d;" parent="1" vertex="1">
          <mxGeometry x="-610" y="1700" width="100" height="40" as="geometry" />
        </mxCell>
        <mxCell id="oHuWamwqqKZyfX19s7B0-165" value="" style="edgeStyle=orthogonalEdgeStyle;rounded=0;orthogonalLoop=1;jettySize=auto;html=1;entryX=0.5;entryY=1;entryDx=0;entryDy=0;exitX=0.5;exitY=0;exitDx=0;exitDy=0;" parent="1" source="oHuWamwqqKZyfX19s7B0-164" target="MjYStLLJE5w2eZP11G4p-1" edge="1">
          <mxGeometry relative="1" as="geometry">
            <mxPoint x="425" y="1655" as="targetPoint" />
            <Array as="points">
              <mxPoint x="-390" y="1770" />
              <mxPoint x="-450" y="1770" />
            </Array>
          </mxGeometry>
        </mxCell>
        <mxCell id="oHuWamwqqKZyfX19s7B0-164" value="Cardholder Name" style="ellipse;whiteSpace=wrap;html=1;align=center;fillColor=#ffcccc;strokeColor=#36393d;" parent="1" vertex="1">
          <mxGeometry x="-450" y="1750" width="100" height="40" as="geometry" />
        </mxCell>
        <mxCell id="oHuWamwqqKZyfX19s7B0-169" value="" style="edgeStyle=orthogonalEdgeStyle;rounded=0;orthogonalLoop=1;jettySize=auto;html=1;" parent="1" source="oHuWamwqqKZyfX19s7B0-166" target="oHuWamwqqKZyfX19s7B0-164" edge="1">
          <mxGeometry relative="1" as="geometry" />
        </mxCell>
        <mxCell id="oHuWamwqqKZyfX19s7B0-166" value="Last Name" style="ellipse;whiteSpace=wrap;html=1;align=center;fillColor=#ffcccc;strokeColor=#36393d;" parent="1" vertex="1">
          <mxGeometry x="-510" y="1830" width="100" height="40" as="geometry" />
        </mxCell>
        <mxCell id="oHuWamwqqKZyfX19s7B0-168" value="" style="edgeStyle=orthogonalEdgeStyle;rounded=0;orthogonalLoop=1;jettySize=auto;html=1;" parent="1" source="oHuWamwqqKZyfX19s7B0-167" target="oHuWamwqqKZyfX19s7B0-164" edge="1">
          <mxGeometry relative="1" as="geometry" />
        </mxCell>
        <mxCell id="oHuWamwqqKZyfX19s7B0-167" value="Fisrt Name" style="ellipse;whiteSpace=wrap;html=1;align=center;fillColor=#ffcccc;strokeColor=#36393d;" parent="1" vertex="1">
          <mxGeometry x="-400" y="1830" width="100" height="40" as="geometry" />
        </mxCell>
        <mxCell id="oHuWamwqqKZyfX19s7B0-170" value="Amenities" style="whiteSpace=wrap;html=1;align=center;fillColor=#dae8fc;gradientColor=#7ea6e0;strokeColor=#6c8ebf;" parent="1" vertex="1">
          <mxGeometry x="1050" y="1180" width="140" height="60" as="geometry" />
        </mxCell>
        <mxCell id="oHuWamwqqKZyfX19s7B0-172" value="" style="edgeStyle=orthogonalEdgeStyle;rounded=0;orthogonalLoop=1;jettySize=auto;html=1;" parent="1" source="oHuWamwqqKZyfX19s7B0-171" target="oHuWamwqqKZyfX19s7B0-170" edge="1">
          <mxGeometry relative="1" as="geometry" />
        </mxCell>
        <mxCell id="oHuWamwqqKZyfX19s7B0-171" value="ID" style="ellipse;whiteSpace=wrap;html=1;align=center;fontStyle=4;fillColor=#ffcccc;strokeColor=#36393d;" parent="1" vertex="1">
          <mxGeometry x="1070" y="1070" width="100" height="40" as="geometry" />
        </mxCell>
        <mxCell id="oHuWamwqqKZyfX19s7B0-174" value="" style="edgeStyle=orthogonalEdgeStyle;rounded=0;orthogonalLoop=1;jettySize=auto;html=1;" parent="1" source="oHuWamwqqKZyfX19s7B0-173" target="oHuWamwqqKZyfX19s7B0-170" edge="1">
          <mxGeometry relative="1" as="geometry" />
        </mxCell>
        <mxCell id="oHuWamwqqKZyfX19s7B0-176" value="" style="edgeStyle=orthogonalEdgeStyle;rounded=0;orthogonalLoop=1;jettySize=auto;html=1;" parent="1" source="oHuWamwqqKZyfX19s7B0-173" target="oHuWamwqqKZyfX19s7B0-170" edge="1">
          <mxGeometry relative="1" as="geometry" />
        </mxCell>
        <mxCell id="oHuWamwqqKZyfX19s7B0-175" value="Description" style="ellipse;whiteSpace=wrap;html=1;align=center;fillColor=#ffcccc;strokeColor=#36393d;" parent="1" vertex="1">
          <mxGeometry x="1155" y="1100" width="100" height="40" as="geometry" />
        </mxCell>
        <mxCell id="oHuWamwqqKZyfX19s7B0-180" value="" style="edgeStyle=orthogonalEdgeStyle;rounded=0;orthogonalLoop=1;jettySize=auto;html=1;entryX=1;entryY=0;entryDx=0;entryDy=0;" parent="1" source="oHuWamwqqKZyfX19s7B0-179" target="4Eenig6uLWs6y-KD1k0Y-1" edge="1">
          <mxGeometry relative="1" as="geometry">
            <mxPoint x="680" y="1170" as="targetPoint" />
          </mxGeometry>
        </mxCell>
        <mxCell id="oHuWamwqqKZyfX19s7B0-179" value="ID" style="ellipse;whiteSpace=wrap;html=1;align=center;fontStyle=4;fillColor=#ffcccc;strokeColor=#36393d;" parent="1" vertex="1">
          <mxGeometry x="790" y="1090" width="100" height="40" as="geometry" />
        </mxCell>
        <mxCell id="oHuWamwqqKZyfX19s7B0-182" value="" style="edgeStyle=orthogonalEdgeStyle;rounded=0;orthogonalLoop=1;jettySize=auto;html=1;entryX=1;entryY=0;entryDx=0;entryDy=0;" parent="1" source="oHuWamwqqKZyfX19s7B0-181" target="4Eenig6uLWs6y-KD1k0Y-1" edge="1">
          <mxGeometry relative="1" as="geometry">
            <mxPoint x="685" y="1175" as="targetPoint" />
            <Array as="points">
              <mxPoint x="690" y="1060" />
            </Array>
          </mxGeometry>
        </mxCell>
        <mxCell id="oHuWamwqqKZyfX19s7B0-181" value="&lt;span style=&quot;border-bottom: 1px dotted&quot;&gt;Flight ID&lt;/span&gt;" style="ellipse;whiteSpace=wrap;html=1;align=center;fillColor=#ffcccc;strokeColor=#36393d;" parent="1" vertex="1">
          <mxGeometry x="790" y="1040" width="100" height="40" as="geometry" />
        </mxCell>
        <mxCell id="oHuWamwqqKZyfX19s7B0-184" value="" style="edgeStyle=orthogonalEdgeStyle;rounded=0;orthogonalLoop=1;jettySize=auto;html=1;exitX=0;exitY=0.5;exitDx=0;exitDy=0;entryX=1;entryY=0;entryDx=0;entryDy=0;" parent="1" source="oHuWamwqqKZyfX19s7B0-183" target="4Eenig6uLWs6y-KD1k0Y-1" edge="1">
          <mxGeometry relative="1" as="geometry">
            <mxPoint x="690" y="1180" as="targetPoint" />
            <Array as="points">
              <mxPoint x="690" y="1160" />
            </Array>
          </mxGeometry>
        </mxCell>
        <mxCell id="oHuWamwqqKZyfX19s7B0-183" value="&lt;span style=&quot;border-bottom: 1px dotted&quot;&gt;Amenities ID&lt;/span&gt;" style="ellipse;whiteSpace=wrap;html=1;align=center;fillColor=#ffcccc;strokeColor=#36393d;" parent="1" vertex="1">
          <mxGeometry x="790" y="1140" width="100" height="40" as="geometry" />
        </mxCell>
        <mxCell id="oHuWamwqqKZyfX19s7B0-185" value="InsuranceCompany" style="whiteSpace=wrap;html=1;align=center;fillColor=#dae8fc;gradientColor=#7ea6e0;strokeColor=#6c8ebf;" parent="1" vertex="1">
          <mxGeometry x="-770" y="1530" width="130" height="70" as="geometry" />
        </mxCell>
        <mxCell id="oHuWamwqqKZyfX19s7B0-259" value="" style="edgeStyle=orthogonalEdgeStyle;rounded=0;orthogonalLoop=1;jettySize=auto;html=1;entryX=0;entryY=0.5;entryDx=0;entryDy=0;" parent="1" source="oHuWamwqqKZyfX19s7B0-186" target="oHuWamwqqKZyfX19s7B0-191" edge="1">
          <mxGeometry relative="1" as="geometry">
            <Array as="points">
              <mxPoint x="-860" y="1340" />
              <mxPoint x="-860" y="1240" />
            </Array>
          </mxGeometry>
        </mxCell>
        <mxCell id="oHuWamwqqKZyfX19s7B0-186" value="ID" style="ellipse;whiteSpace=wrap;html=1;align=center;fontStyle=4;fillColor=#ffcccc;strokeColor=#36393d;" parent="1" vertex="1">
          <mxGeometry x="-1070" y="1320" width="100" height="40" as="geometry" />
        </mxCell>
        <mxCell id="oHuWamwqqKZyfX19s7B0-196" value="" style="edgeStyle=orthogonalEdgeStyle;rounded=0;orthogonalLoop=1;jettySize=auto;html=1;entryX=0;entryY=0.5;entryDx=0;entryDy=0;" parent="1" source="oHuWamwqqKZyfX19s7B0-187" target="oHuWamwqqKZyfX19s7B0-191" edge="1">
          <mxGeometry relative="1" as="geometry" />
        </mxCell>
        <mxCell id="oHuWamwqqKZyfX19s7B0-187" value="&lt;span style=&quot;border-bottom: 1px dotted&quot;&gt;InsCompany ID&lt;/span&gt;" style="ellipse;whiteSpace=wrap;html=1;align=center;fillColor=#ffcccc;strokeColor=#36393d;" parent="1" vertex="1">
          <mxGeometry x="-1060" y="1120" width="100" height="40" as="geometry" />
        </mxCell>
        <mxCell id="oHuWamwqqKZyfX19s7B0-197" value="" style="edgeStyle=orthogonalEdgeStyle;rounded=0;orthogonalLoop=1;jettySize=auto;html=1;entryX=0;entryY=0.5;entryDx=0;entryDy=0;" parent="1" source="oHuWamwqqKZyfX19s7B0-188" target="oHuWamwqqKZyfX19s7B0-191" edge="1">
          <mxGeometry relative="1" as="geometry">
            <mxPoint x="-750" y="1310" as="targetPoint" />
            <Array as="points" />
          </mxGeometry>
        </mxCell>
        <mxCell id="oHuWamwqqKZyfX19s7B0-188" value="Name" style="ellipse;whiteSpace=wrap;html=1;align=center;fillColor=#ffcccc;strokeColor=#36393d;" parent="1" vertex="1">
          <mxGeometry x="-1060" y="1275" width="100" height="40" as="geometry" />
        </mxCell>
        <mxCell id="oHuWamwqqKZyfX19s7B0-198" style="edgeStyle=orthogonalEdgeStyle;rounded=0;orthogonalLoop=1;jettySize=auto;html=1;exitX=1;exitY=0.5;exitDx=0;exitDy=0;entryX=0;entryY=0.5;entryDx=0;entryDy=0;" parent="1" source="oHuWamwqqKZyfX19s7B0-189" target="oHuWamwqqKZyfX19s7B0-191" edge="1">
          <mxGeometry relative="1" as="geometry">
            <Array as="points">
              <mxPoint x="-960" y="1250" />
              <mxPoint x="-860" y="1250" />
              <mxPoint x="-860" y="1240" />
            </Array>
          </mxGeometry>
        </mxCell>
        <mxCell id="oHuWamwqqKZyfX19s7B0-189" value="Description" style="ellipse;whiteSpace=wrap;html=1;align=center;fillColor=#ffcccc;strokeColor=#36393d;" parent="1" vertex="1">
          <mxGeometry x="-1060" y="1220" width="100" height="40" as="geometry" />
        </mxCell>
        <mxCell id="oHuWamwqqKZyfX19s7B0-258" value="" style="edgeStyle=orthogonalEdgeStyle;rounded=0;orthogonalLoop=1;jettySize=auto;html=1;" parent="1" source="oHuWamwqqKZyfX19s7B0-190" target="oHuWamwqqKZyfX19s7B0-191" edge="1">
          <mxGeometry relative="1" as="geometry" />
        </mxCell>
        <mxCell id="oHuWamwqqKZyfX19s7B0-190" value="Price" style="ellipse;whiteSpace=wrap;html=1;align=center;fillColor=#ffcccc;strokeColor=#36393d;" parent="1" vertex="1">
          <mxGeometry x="-1060" y="1170" width="100" height="40" as="geometry" />
        </mxCell>
        <mxCell id="oHuWamwqqKZyfX19s7B0-191" value="Insurance" style="shape=ext;margin=3;double=1;whiteSpace=wrap;html=1;align=center;fillColor=#dae8fc;gradientColor=#7ea6e0;strokeColor=#6c8ebf;" parent="1" vertex="1">
          <mxGeometry x="-765" y="1210" width="120" height="60" as="geometry" />
        </mxCell>
        <mxCell id="oHuWamwqqKZyfX19s7B0-201" value="" style="edgeStyle=orthogonalEdgeStyle;rounded=0;orthogonalLoop=1;jettySize=auto;html=1;entryX=0;entryY=0.5;entryDx=0;entryDy=0;" parent="1" source="oHuWamwqqKZyfX19s7B0-192" target="oHuWamwqqKZyfX19s7B0-185" edge="1">
          <mxGeometry relative="1" as="geometry" />
        </mxCell>
        <mxCell id="oHuWamwqqKZyfX19s7B0-192" value="ID" style="ellipse;whiteSpace=wrap;html=1;align=center;fontStyle=4;fillColor=#ffcccc;strokeColor=#36393d;" parent="1" vertex="1">
          <mxGeometry x="-1070" y="1420" width="100" height="40" as="geometry" />
        </mxCell>
        <mxCell id="oHuWamwqqKZyfX19s7B0-202" style="edgeStyle=orthogonalEdgeStyle;rounded=0;orthogonalLoop=1;jettySize=auto;html=1;exitX=1;exitY=0.5;exitDx=0;exitDy=0;entryX=0;entryY=0.5;entryDx=0;entryDy=0;" parent="1" source="oHuWamwqqKZyfX19s7B0-193" target="oHuWamwqqKZyfX19s7B0-185" edge="1">
          <mxGeometry relative="1" as="geometry">
            <mxPoint x="-750" y="1540" as="targetPoint" />
            <Array as="points">
              <mxPoint x="-870" y="1540" />
              <mxPoint x="-870" y="1565" />
            </Array>
          </mxGeometry>
        </mxCell>
        <mxCell id="oHuWamwqqKZyfX19s7B0-193" value="Name" style="ellipse;whiteSpace=wrap;html=1;align=center;fillColor=#ffcccc;strokeColor=#36393d;" parent="1" vertex="1">
          <mxGeometry x="-1070" y="1520" width="100" height="40" as="geometry" />
        </mxCell>
        <mxCell id="oHuWamwqqKZyfX19s7B0-204" value="" style="edgeStyle=orthogonalEdgeStyle;rounded=0;orthogonalLoop=1;jettySize=auto;html=1;entryX=0;entryY=0.5;entryDx=0;entryDy=0;" parent="1" source="oHuWamwqqKZyfX19s7B0-203" target="oHuWamwqqKZyfX19s7B0-185" edge="1">
          <mxGeometry relative="1" as="geometry">
            <Array as="points">
              <mxPoint x="-870" y="1590" />
              <mxPoint x="-870" y="1565" />
            </Array>
          </mxGeometry>
        </mxCell>
        <mxCell id="oHuWamwqqKZyfX19s7B0-203" value="Email" style="ellipse;whiteSpace=wrap;html=1;align=center;fillColor=#ffcccc;strokeColor=#36393d;" parent="1" vertex="1">
          <mxGeometry x="-1070" y="1570" width="100" height="40" as="geometry" />
        </mxCell>
        <mxCell id="oHuWamwqqKZyfX19s7B0-206" value="" style="edgeStyle=orthogonalEdgeStyle;rounded=0;orthogonalLoop=1;jettySize=auto;html=1;entryX=0;entryY=0.5;entryDx=0;entryDy=0;" parent="1" source="oHuWamwqqKZyfX19s7B0-205" target="oHuWamwqqKZyfX19s7B0-185" edge="1">
          <mxGeometry relative="1" as="geometry">
            <Array as="points">
              <mxPoint x="-870" y="1630" />
              <mxPoint x="-870" y="1565" />
            </Array>
          </mxGeometry>
        </mxCell>
        <mxCell id="oHuWamwqqKZyfX19s7B0-205" value="Phone" style="ellipse;whiteSpace=wrap;html=1;align=center;fillColor=#ffcccc;strokeColor=#36393d;" parent="1" vertex="1">
          <mxGeometry x="-1070" y="1610" width="100" height="40" as="geometry" />
        </mxCell>
        <mxCell id="oHuWamwqqKZyfX19s7B0-208" value="" style="edgeStyle=orthogonalEdgeStyle;rounded=0;orthogonalLoop=1;jettySize=auto;html=1;entryX=0;entryY=0.5;entryDx=0;entryDy=0;exitX=1;exitY=0.5;exitDx=0;exitDy=0;" parent="1" source="oHuWamwqqKZyfX19s7B0-207" target="oHuWamwqqKZyfX19s7B0-185" edge="1">
          <mxGeometry relative="1" as="geometry">
            <mxPoint x="-960" y="1690" as="sourcePoint" />
            <mxPoint x="-770" y="1570" as="targetPoint" />
            <Array as="points">
              <mxPoint x="-870" y="1680" />
              <mxPoint x="-870" y="1565" />
            </Array>
          </mxGeometry>
        </mxCell>
        <mxCell id="oHuWamwqqKZyfX19s7B0-207" value="IBAN" style="ellipse;whiteSpace=wrap;html=1;align=center;fillColor=#ffcccc;strokeColor=#36393d;" parent="1" vertex="1">
          <mxGeometry x="-1070" y="1660" width="100" height="40" as="geometry" />
        </mxCell>
        <mxCell id="oHuWamwqqKZyfX19s7B0-210" style="edgeStyle=orthogonalEdgeStyle;rounded=0;orthogonalLoop=1;jettySize=auto;html=1;exitX=0;exitY=1;exitDx=0;exitDy=0;" parent="1" source="oHuWamwqqKZyfX19s7B0-209" target="oHuWamwqqKZyfX19s7B0-94" edge="1">
          <mxGeometry relative="1" as="geometry" />
        </mxCell>
        <mxCell id="oHuWamwqqKZyfX19s7B0-209" value="Price" style="ellipse;whiteSpace=wrap;html=1;align=center;dashed=1;fillColor=#ffcccc;strokeColor=#36393d;" parent="1" vertex="1">
          <mxGeometry x="840" y="710" width="100" height="40" as="geometry" />
        </mxCell>
        <mxCell id="oHuWamwqqKZyfX19s7B0-214" value="" style="edgeStyle=orthogonalEdgeStyle;rounded=0;orthogonalLoop=1;jettySize=auto;html=1;" parent="1" source="oHuWamwqqKZyfX19s7B0-211" target="oHuWamwqqKZyfX19s7B0-209" edge="1">
          <mxGeometry relative="1" as="geometry" />
        </mxCell>
        <mxCell id="oHuWamwqqKZyfX19s7B0-211" value="Adult" style="ellipse;whiteSpace=wrap;html=1;align=center;fillColor=#ffcccc;strokeColor=#36393d;" parent="1" vertex="1">
          <mxGeometry x="1010" y="680" width="100" height="40" as="geometry" />
        </mxCell>
        <mxCell id="oHuWamwqqKZyfX19s7B0-213" value="" style="edgeStyle=orthogonalEdgeStyle;rounded=0;orthogonalLoop=1;jettySize=auto;html=1;" parent="1" source="oHuWamwqqKZyfX19s7B0-212" target="oHuWamwqqKZyfX19s7B0-209" edge="1">
          <mxGeometry relative="1" as="geometry" />
        </mxCell>
        <mxCell id="oHuWamwqqKZyfX19s7B0-212" value="Kid" style="ellipse;whiteSpace=wrap;html=1;align=center;fillColor=#ffcccc;strokeColor=#36393d;" parent="1" vertex="1">
          <mxGeometry x="1010" y="730" width="100" height="40" as="geometry" />
        </mxCell>
        <mxCell id="oHuWamwqqKZyfX19s7B0-216" value="" style="edgeStyle=orthogonalEdgeStyle;rounded=0;orthogonalLoop=1;jettySize=auto;html=1;entryX=1;entryY=0.5;entryDx=0;entryDy=0;exitX=0;exitY=0.5;exitDx=0;exitDy=0;" parent="1" source="oHuWamwqqKZyfX19s7B0-215" target="S5t8gtHT40wTGtQgQojj-5" edge="1">
          <mxGeometry relative="1" as="geometry">
            <Array as="points">
              <mxPoint x="108" y="1040" />
              <mxPoint x="108" y="900" />
            </Array>
            <mxPoint x="177.5" y="1040" as="sourcePoint" />
            <mxPoint x="-7.5" y="900" as="targetPoint" />
          </mxGeometry>
        </mxCell>
        <mxCell id="oHuWamwqqKZyfX19s7B0-215" value="Passenger Type" style="ellipse;whiteSpace=wrap;html=1;align=center;fillColor=#ffcccc;strokeColor=#36393d;" parent="1" vertex="1">
          <mxGeometry x="200" y="1020" width="100" height="40" as="geometry" />
        </mxCell>
        <mxCell id="oHuWamwqqKZyfX19s7B0-220" value="" style="edgeStyle=orthogonalEdgeStyle;rounded=0;orthogonalLoop=1;jettySize=auto;html=1;entryX=0;entryY=0.5;entryDx=0;entryDy=0;" parent="1" source="oHuWamwqqKZyfX19s7B0-219" target="oHuWamwqqKZyfX19s7B0-185" edge="1">
          <mxGeometry relative="1" as="geometry">
            <Array as="points">
              <mxPoint x="-870" y="1490" />
              <mxPoint x="-870" y="1565" />
            </Array>
          </mxGeometry>
        </mxCell>
        <mxCell id="oHuWamwqqKZyfX19s7B0-219" value="Company Number/ EIK" style="ellipse;whiteSpace=wrap;html=1;align=center;fillColor=#ffcccc;strokeColor=#36393d;" parent="1" vertex="1">
          <mxGeometry x="-1070" y="1470" width="100" height="40" as="geometry" />
        </mxCell>
        <mxCell id="oHuWamwqqKZyfX19s7B0-251" value="" style="edgeStyle=orthogonalEdgeStyle;rounded=0;orthogonalLoop=1;jettySize=auto;html=1;entryX=0;entryY=0.5;entryDx=0;entryDy=0;" parent="1" source="oHuWamwqqKZyfX19s7B0-143" target="oHuWamwqqKZyfX19s7B0-141" edge="1">
          <mxGeometry relative="1" as="geometry">
            <mxPoint x="-200" y="1490" as="targetPoint" />
          </mxGeometry>
        </mxCell>
        <mxCell id="oHuWamwqqKZyfX19s7B0-143" value="Individual" style="ellipse;whiteSpace=wrap;html=1;align=center;fillColor=#ffcccc;strokeColor=#36393d;" parent="1" vertex="1">
          <mxGeometry x="-310" y="1700" width="100" height="40" as="geometry" />
        </mxCell>
        <mxCell id="oHuWamwqqKZyfX19s7B0-145" value="Legal" style="ellipse;whiteSpace=wrap;html=1;align=center;fillColor=#ffcccc;strokeColor=#36393d;" parent="1" vertex="1">
          <mxGeometry x="-310" y="1750" width="100" height="40" as="geometry" />
        </mxCell>
        <mxCell id="oHuWamwqqKZyfX19s7B0-242" value="" style="edgeStyle=orthogonalEdgeStyle;rounded=0;orthogonalLoop=1;jettySize=auto;html=1;" parent="1" source="oHuWamwqqKZyfX19s7B0-175" target="oHuWamwqqKZyfX19s7B0-170" edge="1">
          <mxGeometry relative="1" as="geometry">
            <mxPoint x="1470" y="1400" as="sourcePoint" />
            <mxPoint x="870" y="1360" as="targetPoint" />
          </mxGeometry>
        </mxCell>
        <mxCell id="oHuWamwqqKZyfX19s7B0-173" value="Name" style="ellipse;whiteSpace=wrap;html=1;align=center;fillColor=#ffcccc;strokeColor=#36393d;" parent="1" vertex="1">
          <mxGeometry x="980" y="1100" width="100" height="40" as="geometry" />
        </mxCell>
        <mxCell id="oHuWamwqqKZyfX19s7B0-261" value="" style="endArrow=none;html=1;rounded=0;exitX=1;exitY=0;exitDx=0;exitDy=0;entryX=0;entryY=0.5;entryDx=0;entryDy=0;" parent="1" source="oHuWamwqqKZyfX19s7B0-68" target="oHuWamwqqKZyfX19s7B0-280" edge="1">
          <mxGeometry relative="1" as="geometry">
            <mxPoint x="60" y="480" as="sourcePoint" />
            <mxPoint x="160" y="480" as="targetPoint" />
            <Array as="points">
              <mxPoint x="-695" y="630" />
            </Array>
          </mxGeometry>
        </mxCell>
        <mxCell id="oHuWamwqqKZyfX19s7B0-262" value="" style="resizable=0;html=1;whiteSpace=wrap;align=right;verticalAlign=bottom;" parent="oHuWamwqqKZyfX19s7B0-261" connectable="0" vertex="1">
          <mxGeometry x="1" relative="1" as="geometry" />
        </mxCell>
        <mxCell id="oHuWamwqqKZyfX19s7B0-263" value="" style="endArrow=none;html=1;rounded=0;exitX=1;exitY=0.5;exitDx=0;exitDy=0;entryX=0;entryY=0.5;entryDx=0;entryDy=0;" parent="1" source="oHuWamwqqKZyfX19s7B0-280" target="oHuWamwqqKZyfX19s7B0-94" edge="1">
          <mxGeometry relative="1" as="geometry">
            <mxPoint x="300" y="480" as="sourcePoint" />
            <mxPoint x="390" y="260" as="targetPoint" />
          </mxGeometry>
        </mxCell>
        <mxCell id="oHuWamwqqKZyfX19s7B0-264" value="N" style="resizable=0;html=1;whiteSpace=wrap;align=right;verticalAlign=bottom;" parent="oHuWamwqqKZyfX19s7B0-263" connectable="0" vertex="1">
          <mxGeometry x="1" relative="1" as="geometry" />
        </mxCell>
        <mxCell id="oHuWamwqqKZyfX19s7B0-268" value="has" style="shape=rhombus;perimeter=rhombusPerimeter;whiteSpace=wrap;html=1;align=center;fillColor=#f5f5f5;fontColor=#333333;strokeColor=#666666;" parent="1" vertex="1">
          <mxGeometry x="-630" y="120" width="80" height="50" as="geometry" />
        </mxCell>
        <mxCell id="oHuWamwqqKZyfX19s7B0-269" value="" style="endArrow=none;html=1;rounded=0;exitX=1;exitY=0.5;exitDx=0;exitDy=0;entryX=0;entryY=0.5;entryDx=0;entryDy=0;" parent="1" source="oHuWamwqqKZyfX19s7B0-30" target="oHuWamwqqKZyfX19s7B0-268" edge="1">
          <mxGeometry relative="1" as="geometry">
            <mxPoint x="230" y="260" as="sourcePoint" />
            <mxPoint x="390" y="260" as="targetPoint" />
          </mxGeometry>
        </mxCell>
        <mxCell id="oHuWamwqqKZyfX19s7B0-270" value="" style="endArrow=none;html=1;rounded=0;exitX=1;exitY=0.5;exitDx=0;exitDy=0;entryX=0;entryY=0.25;entryDx=0;entryDy=0;" parent="1" source="oHuWamwqqKZyfX19s7B0-268" target="oHuWamwqqKZyfX19s7B0-8" edge="1">
          <mxGeometry relative="1" as="geometry">
            <mxPoint x="230" y="260" as="sourcePoint" />
            <mxPoint x="390" y="260" as="targetPoint" />
          </mxGeometry>
        </mxCell>
        <mxCell id="oHuWamwqqKZyfX19s7B0-271" value="1" style="resizable=0;html=1;whiteSpace=wrap;align=right;verticalAlign=bottom;" parent="oHuWamwqqKZyfX19s7B0-270" connectable="0" vertex="1">
          <mxGeometry x="1" relative="1" as="geometry">
            <mxPoint y="21" as="offset" />
          </mxGeometry>
        </mxCell>
        <mxCell id="oHuWamwqqKZyfX19s7B0-272" value="1" style="text;html=1;align=center;verticalAlign=middle;resizable=0;points=[];autosize=1;strokeColor=none;fillColor=none;" parent="1" vertex="1">
          <mxGeometry x="-690" y="730" width="30" height="30" as="geometry" />
        </mxCell>
        <mxCell id="oHuWamwqqKZyfX19s7B0-273" value="has" style="shape=rhombus;perimeter=rhombusPerimeter;whiteSpace=wrap;html=1;align=center;fillColor=#f5f5f5;fontColor=#333333;strokeColor=#666666;" parent="1" vertex="1">
          <mxGeometry x="-795" y="512.5" width="70" height="35" as="geometry" />
        </mxCell>
        <mxCell id="oHuWamwqqKZyfX19s7B0-276" value="" style="endArrow=none;html=1;rounded=0;exitX=0.5;exitY=0;exitDx=0;exitDy=0;entryX=0.5;entryY=1;entryDx=0;entryDy=0;" parent="1" source="oHuWamwqqKZyfX19s7B0-273" target="oHuWamwqqKZyfX19s7B0-30" edge="1">
          <mxGeometry relative="1" as="geometry">
            <mxPoint x="230" y="430" as="sourcePoint" />
            <mxPoint x="390" y="430" as="targetPoint" />
          </mxGeometry>
        </mxCell>
        <mxCell id="oHuWamwqqKZyfX19s7B0-277" value="1" style="resizable=0;html=1;whiteSpace=wrap;align=right;verticalAlign=bottom;" parent="oHuWamwqqKZyfX19s7B0-276" connectable="0" vertex="1">
          <mxGeometry x="1" relative="1" as="geometry">
            <mxPoint y="20" as="offset" />
          </mxGeometry>
        </mxCell>
        <mxCell id="oHuWamwqqKZyfX19s7B0-278" value="" style="endArrow=none;html=1;rounded=0;exitX=0.5;exitY=1;exitDx=0;exitDy=0;" parent="1" source="oHuWamwqqKZyfX19s7B0-273" target="oHuWamwqqKZyfX19s7B0-68" edge="1">
          <mxGeometry relative="1" as="geometry">
            <mxPoint x="230" y="430" as="sourcePoint" />
            <mxPoint x="390" y="430" as="targetPoint" />
          </mxGeometry>
        </mxCell>
        <mxCell id="oHuWamwqqKZyfX19s7B0-279" value="1" style="resizable=0;html=1;whiteSpace=wrap;align=right;verticalAlign=bottom;" parent="oHuWamwqqKZyfX19s7B0-278" connectable="0" vertex="1">
          <mxGeometry x="1" relative="1" as="geometry">
            <mxPoint x="9" y="-1" as="offset" />
          </mxGeometry>
        </mxCell>
        <mxCell id="oHuWamwqqKZyfX19s7B0-280" value="has" style="shape=rhombus;perimeter=rhombusPerimeter;whiteSpace=wrap;html=1;align=center;fillColor=#f5f5f5;fontColor=#333333;strokeColor=#666666;" parent="1" vertex="1">
          <mxGeometry x="-280" y="582.5" width="150" height="97.5" as="geometry" />
        </mxCell>
        <mxCell id="oHuWamwqqKZyfX19s7B0-281" value="has" style="shape=rhombus;perimeter=rhombusPerimeter;whiteSpace=wrap;html=1;align=center;fillColor=#f5f5f5;fontColor=#333333;strokeColor=#666666;" parent="1" vertex="1">
          <mxGeometry x="-370" y="750" width="90" height="40" as="geometry" />
        </mxCell>
        <mxCell id="oHuWamwqqKZyfX19s7B0-282" value="" style="endArrow=none;html=1;rounded=0;entryX=1;entryY=0.25;entryDx=0;entryDy=0;exitX=0;exitY=0.5;exitDx=0;exitDy=0;" parent="1" source="oHuWamwqqKZyfX19s7B0-281" target="oHuWamwqqKZyfX19s7B0-68" edge="1">
          <mxGeometry relative="1" as="geometry">
            <mxPoint x="230" y="600" as="sourcePoint" />
            <mxPoint x="390" y="600" as="targetPoint" />
          </mxGeometry>
        </mxCell>
        <mxCell id="oHuWamwqqKZyfX19s7B0-283" value="1" style="resizable=0;html=1;whiteSpace=wrap;align=right;verticalAlign=bottom;" parent="oHuWamwqqKZyfX19s7B0-282" connectable="0" vertex="1">
          <mxGeometry x="1" relative="1" as="geometry">
            <mxPoint x="20" y="15" as="offset" />
          </mxGeometry>
        </mxCell>
        <mxCell id="oHuWamwqqKZyfX19s7B0-284" value="" style="endArrow=none;html=1;rounded=0;entryX=0.5;entryY=0;entryDx=0;entryDy=0;exitX=1;exitY=0.5;exitDx=0;exitDy=0;" parent="1" source="oHuWamwqqKZyfX19s7B0-281" target="S5t8gtHT40wTGtQgQojj-5" edge="1">
          <mxGeometry relative="1" as="geometry">
            <mxPoint x="-300" y="750" as="sourcePoint" />
            <mxPoint x="-45" y="870" as="targetPoint" />
            <Array as="points">
              <mxPoint x="-40" y="770" />
            </Array>
          </mxGeometry>
        </mxCell>
        <mxCell id="oHuWamwqqKZyfX19s7B0-285" value="N" style="resizable=0;html=1;whiteSpace=wrap;align=right;verticalAlign=bottom;" parent="oHuWamwqqKZyfX19s7B0-284" connectable="0" vertex="1">
          <mxGeometry x="1" relative="1" as="geometry">
            <mxPoint x="10" y="-10" as="offset" />
          </mxGeometry>
        </mxCell>
        <mxCell id="oHuWamwqqKZyfX19s7B0-288" value="" style="endArrow=none;html=1;rounded=0;exitX=0.5;exitY=0;exitDx=0;exitDy=0;entryX=0.5;entryY=1;entryDx=0;entryDy=0;" parent="1" source="oHuWamwqqKZyfX19s7B0-354" target="OuouIeQms1KpbcXzNO0Q-3" edge="1">
          <mxGeometry relative="1" as="geometry">
            <mxPoint x="447.5" y="265" as="sourcePoint" />
            <mxPoint x="390" y="430" as="targetPoint" />
          </mxGeometry>
        </mxCell>
        <mxCell id="oHuWamwqqKZyfX19s7B0-289" value="1" style="resizable=0;html=1;whiteSpace=wrap;align=right;verticalAlign=bottom;" parent="oHuWamwqqKZyfX19s7B0-288" connectable="0" vertex="1">
          <mxGeometry x="1" relative="1" as="geometry">
            <mxPoint x="10" y="15" as="offset" />
          </mxGeometry>
        </mxCell>
        <mxCell id="oHuWamwqqKZyfX19s7B0-290" value="AirlineSetPrice" style="shape=rhombus;perimeter=rhombusPerimeter;whiteSpace=wrap;html=1;align=center;fillColor=#f5f5f5;fontColor=#333333;strokeColor=#666666;" parent="1" vertex="1">
          <mxGeometry x="1320" y="960" width="120" height="60" as="geometry" />
        </mxCell>
        <mxCell id="oHuWamwqqKZyfX19s7B0-291" value="has" style="shape=rhombus;perimeter=rhombusPerimeter;whiteSpace=wrap;html=1;align=center;fillColor=#f5f5f5;fontColor=#333333;strokeColor=#666666;" parent="1" vertex="1">
          <mxGeometry x="1110" y="1477.5" width="60" height="45" as="geometry" />
        </mxCell>
        <mxCell id="oHuWamwqqKZyfX19s7B0-292" value="" style="endArrow=none;html=1;rounded=0;exitX=1;exitY=0.5;exitDx=0;exitDy=0;entryX=0;entryY=0.5;entryDx=0;entryDy=0;" parent="1" source="oHuWamwqqKZyfX19s7B0-291" target="4Eenig6uLWs6y-KD1k0Y-2" edge="1">
          <mxGeometry relative="1" as="geometry">
            <mxPoint x="570" y="1600" as="sourcePoint" />
            <mxPoint x="1269.9999999999995" y="1500" as="targetPoint" />
          </mxGeometry>
        </mxCell>
        <mxCell id="oHuWamwqqKZyfX19s7B0-293" value="N" style="resizable=0;html=1;whiteSpace=wrap;align=right;verticalAlign=bottom;" parent="oHuWamwqqKZyfX19s7B0-292" connectable="0" vertex="1">
          <mxGeometry x="1" relative="1" as="geometry">
            <mxPoint x="10" as="offset" />
          </mxGeometry>
        </mxCell>
        <mxCell id="oHuWamwqqKZyfX19s7B0-294" value="" style="endArrow=none;html=1;rounded=0;exitX=0;exitY=0.5;exitDx=0;exitDy=0;entryX=1;entryY=0.5;entryDx=0;entryDy=0;" parent="1" source="oHuWamwqqKZyfX19s7B0-291" target="oHuWamwqqKZyfX19s7B0-119" edge="1">
          <mxGeometry relative="1" as="geometry">
            <mxPoint x="570" y="1600" as="sourcePoint" />
            <mxPoint x="730" y="1600" as="targetPoint" />
          </mxGeometry>
        </mxCell>
        <mxCell id="oHuWamwqqKZyfX19s7B0-295" value="1" style="resizable=0;html=1;whiteSpace=wrap;align=right;verticalAlign=bottom;" parent="oHuWamwqqKZyfX19s7B0-294" connectable="0" vertex="1">
          <mxGeometry x="1" relative="1" as="geometry" />
        </mxCell>
        <mxCell id="oHuWamwqqKZyfX19s7B0-296" value="" style="endArrow=none;html=1;rounded=0;entryX=1;entryY=0;entryDx=0;entryDy=0;exitX=0.5;exitY=1;exitDx=0;exitDy=0;" parent="1" source="oHuWamwqqKZyfX19s7B0-290" target="4Eenig6uLWs6y-KD1k0Y-2" edge="1">
          <mxGeometry relative="1" as="geometry">
            <mxPoint x="1470" y="1440" as="sourcePoint" />
            <mxPoint x="1374.9999999999995" y="1470" as="targetPoint" />
            <Array as="points" />
          </mxGeometry>
        </mxCell>
        <mxCell id="oHuWamwqqKZyfX19s7B0-297" value="N" style="resizable=0;html=1;whiteSpace=wrap;align=right;verticalAlign=bottom;" parent="oHuWamwqqKZyfX19s7B0-296" connectable="0" vertex="1">
          <mxGeometry x="1" relative="1" as="geometry">
            <mxPoint x="5" y="-10" as="offset" />
          </mxGeometry>
        </mxCell>
        <mxCell id="oHuWamwqqKZyfX19s7B0-298" value="" style="endArrow=none;html=1;rounded=0;entryX=1;entryY=1;entryDx=0;entryDy=0;" parent="1" source="oHuWamwqqKZyfX19s7B0-290" target="oHuWamwqqKZyfX19s7B0-22" edge="1">
          <mxGeometry relative="1" as="geometry">
            <mxPoint x="570" y="1600" as="sourcePoint" />
            <mxPoint x="1280" y="280" as="targetPoint" />
            <Array as="points">
              <mxPoint x="1380" y="230" />
            </Array>
          </mxGeometry>
        </mxCell>
        <mxCell id="oHuWamwqqKZyfX19s7B0-299" value="1" style="resizable=0;html=1;whiteSpace=wrap;align=right;verticalAlign=bottom;" parent="oHuWamwqqKZyfX19s7B0-298" connectable="0" vertex="1">
          <mxGeometry x="1" relative="1" as="geometry">
            <mxPoint x="15" as="offset" />
          </mxGeometry>
        </mxCell>
        <mxCell id="oHuWamwqqKZyfX19s7B0-300" value="has" style="shape=rhombus;perimeter=rhombusPerimeter;whiteSpace=wrap;html=1;align=center;fillColor=#f5f5f5;fontColor=#333333;strokeColor=#666666;" parent="1" vertex="1">
          <mxGeometry x="300" y="595" width="90" height="30" as="geometry" />
        </mxCell>
        <mxCell id="oHuWamwqqKZyfX19s7B0-301" value="" style="endArrow=none;html=1;rounded=0;entryX=0.908;entryY=1.004;entryDx=0;entryDy=0;exitX=0.5;exitY=0;exitDx=0;exitDy=0;entryPerimeter=0;" parent="1" source="oHuWamwqqKZyfX19s7B0-300" target="oHuWamwqqKZyfX19s7B0-11" edge="1">
          <mxGeometry relative="1" as="geometry">
            <mxPoint x="280" y="600" as="sourcePoint" />
            <mxPoint x="440" y="600" as="targetPoint" />
          </mxGeometry>
        </mxCell>
        <mxCell id="oHuWamwqqKZyfX19s7B0-302" value="N" style="resizable=0;html=1;whiteSpace=wrap;align=right;verticalAlign=bottom;" parent="oHuWamwqqKZyfX19s7B0-301" connectable="0" vertex="1">
          <mxGeometry x="1" relative="1" as="geometry">
            <mxPoint y="20" as="offset" />
          </mxGeometry>
        </mxCell>
        <mxCell id="oHuWamwqqKZyfX19s7B0-303" value="" style="endArrow=none;html=1;rounded=0;exitX=1;exitY=0.5;exitDx=0;exitDy=0;" parent="1" source="oHuWamwqqKZyfX19s7B0-300" edge="1">
          <mxGeometry relative="1" as="geometry">
            <mxPoint x="490" y="570" as="sourcePoint" />
            <mxPoint x="540" y="610" as="targetPoint" />
            <Array as="points" />
          </mxGeometry>
        </mxCell>
        <mxCell id="oHuWamwqqKZyfX19s7B0-304" value="N" style="resizable=0;html=1;whiteSpace=wrap;align=right;verticalAlign=bottom;" parent="oHuWamwqqKZyfX19s7B0-303" connectable="0" vertex="1">
          <mxGeometry x="1" relative="1" as="geometry">
            <mxPoint x="-12" y="10" as="offset" />
          </mxGeometry>
        </mxCell>
        <mxCell id="oHuWamwqqKZyfX19s7B0-305" value="has" style="shape=rhombus;perimeter=rhombusPerimeter;whiteSpace=wrap;html=1;align=center;fillColor=#f5f5f5;fontColor=#333333;strokeColor=#666666;" parent="1" vertex="1">
          <mxGeometry x="-530" y="1160" width="50" height="30" as="geometry" />
        </mxCell>
        <mxCell id="oHuWamwqqKZyfX19s7B0-306" value="" style="endArrow=none;html=1;rounded=0;exitX=0.5;exitY=1;exitDx=0;exitDy=0;entryX=0;entryY=0;entryDx=0;entryDy=0;" parent="1" source="oHuWamwqqKZyfX19s7B0-305" target="MjYStLLJE5w2eZP11G4p-2" edge="1">
          <mxGeometry relative="1" as="geometry">
            <mxPoint x="-440" y="1430" as="sourcePoint" />
            <mxPoint x="-60" y="1620" as="targetPoint" />
            <Array as="points">
              <mxPoint x="-500" y="1600" />
            </Array>
          </mxGeometry>
        </mxCell>
        <mxCell id="oHuWamwqqKZyfX19s7B0-307" value="N" style="resizable=0;html=1;whiteSpace=wrap;align=right;verticalAlign=bottom;" parent="oHuWamwqqKZyfX19s7B0-306" connectable="0" vertex="1">
          <mxGeometry x="1" relative="1" as="geometry">
            <mxPoint x="-5" as="offset" />
          </mxGeometry>
        </mxCell>
        <mxCell id="oHuWamwqqKZyfX19s7B0-308" value="" style="endArrow=none;html=1;rounded=0;exitX=0.5;exitY=0;exitDx=0;exitDy=0;entryX=0;entryY=1;entryDx=0;entryDy=0;" parent="1" source="oHuWamwqqKZyfX19s7B0-305" target="oHuWamwqqKZyfX19s7B0-8" edge="1">
          <mxGeometry relative="1" as="geometry">
            <mxPoint x="-440" y="1430" as="sourcePoint" />
            <mxPoint x="-280" y="1430" as="targetPoint" />
            <Array as="points">
              <mxPoint x="-505" y="180" />
            </Array>
          </mxGeometry>
        </mxCell>
        <mxCell id="oHuWamwqqKZyfX19s7B0-309" value="1" style="resizable=0;html=1;whiteSpace=wrap;align=right;verticalAlign=bottom;" parent="oHuWamwqqKZyfX19s7B0-308" connectable="0" vertex="1">
          <mxGeometry x="1" relative="1" as="geometry" />
        </mxCell>
        <mxCell id="oHuWamwqqKZyfX19s7B0-312" value="has" style="shape=rhombus;perimeter=rhombusPerimeter;whiteSpace=wrap;html=1;align=center;fillColor=#f5f5f5;fontColor=#333333;strokeColor=#666666;" parent="1" vertex="1">
          <mxGeometry x="-320" y="1640" width="70" height="40" as="geometry" />
        </mxCell>
        <mxCell id="oHuWamwqqKZyfX19s7B0-313" value="" style="endArrow=none;html=1;rounded=0;exitX=1;exitY=0.5;exitDx=0;exitDy=0;entryX=0;entryY=1;entryDx=0;entryDy=0;" parent="1" source="oHuWamwqqKZyfX19s7B0-312" target="MjYStLLJE5w2eZP11G4p-2" edge="1">
          <mxGeometry relative="1" as="geometry">
            <mxPoint x="-210" y="1430" as="sourcePoint" />
            <mxPoint x="50" y="1620" as="targetPoint" />
            <Array as="points">
              <mxPoint x="-65" y="1660" />
            </Array>
          </mxGeometry>
        </mxCell>
        <mxCell id="oHuWamwqqKZyfX19s7B0-314" value="1" style="resizable=0;html=1;whiteSpace=wrap;align=right;verticalAlign=bottom;" parent="oHuWamwqqKZyfX19s7B0-313" connectable="0" vertex="1">
          <mxGeometry x="1" relative="1" as="geometry">
            <mxPoint x="10" as="offset" />
          </mxGeometry>
        </mxCell>
        <mxCell id="oHuWamwqqKZyfX19s7B0-315" value="" style="endArrow=none;html=1;rounded=0;exitX=0;exitY=0.5;exitDx=0;exitDy=0;entryX=1;entryY=0.5;entryDx=0;entryDy=0;" parent="1" source="oHuWamwqqKZyfX19s7B0-312" target="MjYStLLJE5w2eZP11G4p-1" edge="1">
          <mxGeometry relative="1" as="geometry">
            <mxPoint x="-210" y="1430" as="sourcePoint" />
            <mxPoint x="370" y="1620" as="targetPoint" />
          </mxGeometry>
        </mxCell>
        <mxCell id="oHuWamwqqKZyfX19s7B0-316" value="N" style="resizable=0;html=1;whiteSpace=wrap;align=right;verticalAlign=bottom;" parent="oHuWamwqqKZyfX19s7B0-315" connectable="0" vertex="1">
          <mxGeometry x="1" relative="1" as="geometry">
            <mxPoint x="20" y="20" as="offset" />
          </mxGeometry>
        </mxCell>
        <mxCell id="oHuWamwqqKZyfX19s7B0-318" value="has" style="shape=rhombus;perimeter=rhombusPerimeter;whiteSpace=wrap;html=1;align=center;fillColor=#eeeeee;strokeColor=#36393d;" parent="1" vertex="1">
          <mxGeometry x="840" y="1195" width="90" height="30" as="geometry" />
        </mxCell>
        <mxCell id="oHuWamwqqKZyfX19s7B0-319" value="" style="endArrow=none;html=1;rounded=0;entryX=1.008;entryY=0.335;entryDx=0;entryDy=0;exitX=0;exitY=0.5;exitDx=0;exitDy=0;entryPerimeter=0;" parent="1" source="oHuWamwqqKZyfX19s7B0-318" target="4Eenig6uLWs6y-KD1k0Y-1" edge="1">
          <mxGeometry relative="1" as="geometry">
            <mxPoint x="730" y="1260" as="sourcePoint" />
            <mxPoint x="732.5" y="1210" as="targetPoint" />
          </mxGeometry>
        </mxCell>
        <mxCell id="oHuWamwqqKZyfX19s7B0-320" value="N" style="resizable=0;html=1;whiteSpace=wrap;align=right;verticalAlign=bottom;" parent="oHuWamwqqKZyfX19s7B0-319" connectable="0" vertex="1">
          <mxGeometry x="1" relative="1" as="geometry">
            <mxPoint x="2" y="19" as="offset" />
          </mxGeometry>
        </mxCell>
        <mxCell id="oHuWamwqqKZyfX19s7B0-321" value="" style="endArrow=none;html=1;rounded=0;entryX=0;entryY=0.5;entryDx=0;entryDy=0;exitX=1;exitY=0.5;exitDx=0;exitDy=0;" parent="1" source="oHuWamwqqKZyfX19s7B0-318" target="oHuWamwqqKZyfX19s7B0-170" edge="1">
          <mxGeometry relative="1" as="geometry">
            <mxPoint x="880" y="1300" as="sourcePoint" />
            <mxPoint x="890" y="1260" as="targetPoint" />
          </mxGeometry>
        </mxCell>
        <mxCell id="oHuWamwqqKZyfX19s7B0-322" value="1" style="resizable=0;html=1;whiteSpace=wrap;align=right;verticalAlign=bottom;" parent="oHuWamwqqKZyfX19s7B0-321" connectable="0" vertex="1">
          <mxGeometry x="1" relative="1" as="geometry">
            <mxPoint x="-340" as="offset" />
          </mxGeometry>
        </mxCell>
        <mxCell id="oHuWamwqqKZyfX19s7B0-327" value="has" style="shape=rhombus;perimeter=rhombusPerimeter;whiteSpace=wrap;html=1;align=center;fillColor=#f5f5f5;fontColor=#333333;strokeColor=#666666;" parent="1" vertex="1">
          <mxGeometry x="720" y="450" width="40" height="40" as="geometry" />
        </mxCell>
        <mxCell id="oHuWamwqqKZyfX19s7B0-329" value="" style="endArrow=none;html=1;rounded=0;exitX=0.5;exitY=1;exitDx=0;exitDy=0;entryX=1;entryY=0;entryDx=0;entryDy=0;" parent="1" source="oHuWamwqqKZyfX19s7B0-327" target="oHuWamwqqKZyfX19s7B0-94" edge="1">
          <mxGeometry relative="1" as="geometry">
            <mxPoint x="730" y="760" as="sourcePoint" />
            <mxPoint x="890" y="760" as="targetPoint" />
          </mxGeometry>
        </mxCell>
        <mxCell id="oHuWamwqqKZyfX19s7B0-330" value="N" style="resizable=0;html=1;whiteSpace=wrap;align=right;verticalAlign=bottom;" parent="oHuWamwqqKZyfX19s7B0-329" connectable="0" vertex="1">
          <mxGeometry x="1" relative="1" as="geometry" />
        </mxCell>
        <mxCell id="oHuWamwqqKZyfX19s7B0-331" value="" style="endArrow=none;html=1;rounded=0;exitX=0.5;exitY=0;exitDx=0;exitDy=0;entryX=0;entryY=0.5;entryDx=0;entryDy=0;" parent="1" source="oHuWamwqqKZyfX19s7B0-327" target="oHuWamwqqKZyfX19s7B0-47" edge="1">
          <mxGeometry relative="1" as="geometry">
            <mxPoint x="730" y="760" as="sourcePoint" />
            <mxPoint x="890" y="760" as="targetPoint" />
            <Array as="points">
              <mxPoint x="740" y="405" />
            </Array>
          </mxGeometry>
        </mxCell>
        <mxCell id="oHuWamwqqKZyfX19s7B0-332" value="1" style="resizable=0;html=1;whiteSpace=wrap;align=right;verticalAlign=bottom;" parent="oHuWamwqqKZyfX19s7B0-331" connectable="0" vertex="1">
          <mxGeometry x="1" relative="1" as="geometry" />
        </mxCell>
        <mxCell id="oHuWamwqqKZyfX19s7B0-338" value="has" style="shape=rhombus;perimeter=rhombusPerimeter;whiteSpace=wrap;html=1;align=center;fillColor=#f5f5f5;fontColor=#333333;strokeColor=#666666;" parent="1" vertex="1">
          <mxGeometry x="-745" y="1390" width="80" height="45" as="geometry" />
        </mxCell>
        <mxCell id="oHuWamwqqKZyfX19s7B0-339" value="" style="endArrow=none;html=1;rounded=0;exitX=0.5;exitY=1;exitDx=0;exitDy=0;entryX=0.5;entryY=0;entryDx=0;entryDy=0;" parent="1" source="oHuWamwqqKZyfX19s7B0-338" target="oHuWamwqqKZyfX19s7B0-185" edge="1">
          <mxGeometry relative="1" as="geometry">
            <mxPoint x="-790" y="1430" as="sourcePoint" />
            <mxPoint x="-630" y="1430" as="targetPoint" />
          </mxGeometry>
        </mxCell>
        <mxCell id="oHuWamwqqKZyfX19s7B0-340" value="1" style="resizable=0;html=1;whiteSpace=wrap;align=right;verticalAlign=bottom;" parent="oHuWamwqqKZyfX19s7B0-339" connectable="0" vertex="1">
          <mxGeometry x="1" relative="1" as="geometry" />
        </mxCell>
        <mxCell id="oHuWamwqqKZyfX19s7B0-341" value="" style="endArrow=none;html=1;rounded=0;exitX=0.5;exitY=0;exitDx=0;exitDy=0;entryX=0.5;entryY=1;entryDx=0;entryDy=0;" parent="1" source="oHuWamwqqKZyfX19s7B0-338" target="oHuWamwqqKZyfX19s7B0-191" edge="1">
          <mxGeometry relative="1" as="geometry">
            <mxPoint x="-790" y="1430" as="sourcePoint" />
            <mxPoint x="-680" y="1280" as="targetPoint" />
          </mxGeometry>
        </mxCell>
        <mxCell id="oHuWamwqqKZyfX19s7B0-342" value="N" style="resizable=0;html=1;whiteSpace=wrap;align=right;verticalAlign=bottom;" parent="oHuWamwqqKZyfX19s7B0-341" connectable="0" vertex="1">
          <mxGeometry x="1" relative="1" as="geometry">
            <mxPoint x="20" y="10" as="offset" />
          </mxGeometry>
        </mxCell>
        <mxCell id="oHuWamwqqKZyfX19s7B0-343" value="has" style="shape=rhombus;perimeter=rhombusPerimeter;whiteSpace=wrap;html=1;align=center;fillColor=#f5f5f5;fontColor=#333333;strokeColor=#666666;" parent="1" vertex="1">
          <mxGeometry x="-400" y="1220" width="50" height="30" as="geometry" />
        </mxCell>
        <mxCell id="oHuWamwqqKZyfX19s7B0-344" value="" style="endArrow=none;html=1;rounded=0;dashed=1;dashPattern=1 2;exitX=0;exitY=0.5;exitDx=0;exitDy=0;entryX=1;entryY=0.5;entryDx=0;entryDy=0;" parent="1" source="oHuWamwqqKZyfX19s7B0-343" target="oHuWamwqqKZyfX19s7B0-191" edge="1">
          <mxGeometry relative="1" as="geometry">
            <mxPoint x="-410" y="1100" as="sourcePoint" />
            <mxPoint x="-250" y="1100" as="targetPoint" />
          </mxGeometry>
        </mxCell>
        <mxCell id="oHuWamwqqKZyfX19s7B0-345" value="1" style="resizable=0;html=1;whiteSpace=wrap;align=right;verticalAlign=bottom;" parent="oHuWamwqqKZyfX19s7B0-344" connectable="0" vertex="1">
          <mxGeometry x="1" relative="1" as="geometry">
            <mxPoint x="10" y="-10" as="offset" />
          </mxGeometry>
        </mxCell>
        <mxCell id="oHuWamwqqKZyfX19s7B0-346" value="" style="endArrow=none;html=1;rounded=0;dashed=1;dashPattern=1 2;exitX=1;exitY=0.5;exitDx=0;exitDy=0;entryX=0.126;entryY=1;entryDx=0;entryDy=0;entryPerimeter=0;" parent="1" source="oHuWamwqqKZyfX19s7B0-343" target="S5t8gtHT40wTGtQgQojj-5" edge="1">
          <mxGeometry relative="1" as="geometry">
            <mxPoint x="-410" y="1100" as="sourcePoint" />
            <mxPoint x="-80" y="930" as="targetPoint" />
            <Array as="points">
              <mxPoint x="-80" y="1240" />
            </Array>
          </mxGeometry>
        </mxCell>
        <mxCell id="oHuWamwqqKZyfX19s7B0-347" value="N" style="resizable=0;html=1;whiteSpace=wrap;align=right;verticalAlign=bottom;" parent="oHuWamwqqKZyfX19s7B0-346" connectable="0" vertex="1">
          <mxGeometry x="1" relative="1" as="geometry">
            <mxPoint y="20" as="offset" />
          </mxGeometry>
        </mxCell>
        <mxCell id="oHuWamwqqKZyfX19s7B0-349" value="has" style="shape=rhombus;perimeter=rhombusPerimeter;whiteSpace=wrap;html=1;align=center;fillColor=#f5f5f5;fontColor=#333333;strokeColor=#666666;" parent="1" vertex="1">
          <mxGeometry x="530" y="1020" width="120" height="60" as="geometry" />
        </mxCell>
        <mxCell id="oHuWamwqqKZyfX19s7B0-350" value="" style="endArrow=none;html=1;rounded=0;exitX=0.5;exitY=1;exitDx=0;exitDy=0;entryX=0.231;entryY=0.143;entryDx=0;entryDy=0;entryPerimeter=0;" parent="1" source="oHuWamwqqKZyfX19s7B0-349" target="4Eenig6uLWs6y-KD1k0Y-1" edge="1">
          <mxGeometry relative="1" as="geometry">
            <mxPoint x="900" y="930" as="sourcePoint" />
            <mxPoint x="590" y="1175" as="targetPoint" />
          </mxGeometry>
        </mxCell>
        <mxCell id="oHuWamwqqKZyfX19s7B0-351" value="N" style="resizable=0;html=1;whiteSpace=wrap;align=right;verticalAlign=bottom;" parent="oHuWamwqqKZyfX19s7B0-350" connectable="0" vertex="1">
          <mxGeometry x="1" relative="1" as="geometry">
            <mxPoint x="-10" y="-11" as="offset" />
          </mxGeometry>
        </mxCell>
        <mxCell id="oHuWamwqqKZyfX19s7B0-352" value="" style="endArrow=none;html=1;rounded=0;exitX=0.5;exitY=0;exitDx=0;exitDy=0;entryX=0.25;entryY=1;entryDx=0;entryDy=0;" parent="1" source="oHuWamwqqKZyfX19s7B0-349" target="oHuWamwqqKZyfX19s7B0-94" edge="1">
          <mxGeometry relative="1" as="geometry">
            <mxPoint x="900" y="930" as="sourcePoint" />
            <mxPoint x="1060" y="930" as="targetPoint" />
          </mxGeometry>
        </mxCell>
        <mxCell id="oHuWamwqqKZyfX19s7B0-353" value="1" style="resizable=0;html=1;whiteSpace=wrap;align=right;verticalAlign=bottom;" parent="oHuWamwqqKZyfX19s7B0-352" connectable="0" vertex="1">
          <mxGeometry x="1" relative="1" as="geometry">
            <mxPoint x="-11" y="25" as="offset" />
          </mxGeometry>
        </mxCell>
        <mxCell id="oHuWamwqqKZyfX19s7B0-354" value="has" style="shape=rhombus;perimeter=rhombusPerimeter;whiteSpace=wrap;html=1;align=center;fillColor=#f5f5f5;fontColor=#333333;strokeColor=#666666;" parent="1" vertex="1">
          <mxGeometry x="260" y="275" width="60" height="30" as="geometry" />
        </mxCell>
        <mxCell id="oHuWamwqqKZyfX19s7B0-360" value="has" style="shape=rhombus;perimeter=rhombusPerimeter;whiteSpace=wrap;html=1;align=center;fillColor=#f5f5f5;fontColor=#333333;strokeColor=#666666;" parent="1" vertex="1">
          <mxGeometry x="370" y="660" width="120" height="60" as="geometry" />
        </mxCell>
        <mxCell id="oHuWamwqqKZyfX19s7B0-361" value="" style="endArrow=none;html=1;rounded=0;exitX=0;exitY=0.5;exitDx=0;exitDy=0;entryX=1;entryY=0;entryDx=0;entryDy=0;" parent="1" source="oHuWamwqqKZyfX19s7B0-360" target="S5t8gtHT40wTGtQgQojj-5" edge="1">
          <mxGeometry relative="1" as="geometry">
            <mxPoint x="560" y="760" as="sourcePoint" />
            <mxPoint x="60" y="870" as="targetPoint" />
            <Array as="points">
              <mxPoint x="20" y="690" />
            </Array>
          </mxGeometry>
        </mxCell>
        <mxCell id="oHuWamwqqKZyfX19s7B0-362" value="N" style="resizable=0;html=1;whiteSpace=wrap;align=right;verticalAlign=bottom;" parent="oHuWamwqqKZyfX19s7B0-361" connectable="0" vertex="1">
          <mxGeometry x="1" relative="1" as="geometry">
            <mxPoint x="34" y="10" as="offset" />
          </mxGeometry>
        </mxCell>
        <mxCell id="oHuWamwqqKZyfX19s7B0-363" value="" style="endArrow=none;html=1;rounded=0;exitX=1;exitY=0;exitDx=0;exitDy=0;entryX=0;entryY=1;entryDx=0;entryDy=0;" parent="1" source="oHuWamwqqKZyfX19s7B0-360" target="oHuWamwqqKZyfX19s7B0-94" edge="1">
          <mxGeometry relative="1" as="geometry">
            <mxPoint x="560" y="760" as="sourcePoint" />
            <mxPoint x="600" y="680" as="targetPoint" />
          </mxGeometry>
        </mxCell>
        <mxCell id="oHuWamwqqKZyfX19s7B0-364" value="1" style="resizable=0;html=1;whiteSpace=wrap;align=right;verticalAlign=bottom;" parent="oHuWamwqqKZyfX19s7B0-363" connectable="0" vertex="1">
          <mxGeometry x="1" relative="1" as="geometry">
            <mxPoint x="11" y="19" as="offset" />
          </mxGeometry>
        </mxCell>
        <mxCell id="oHuWamwqqKZyfX19s7B0-365" value="&lt;span style=&quot;border-bottom: 1px dotted&quot;&gt;PayerID&lt;/span&gt;" style="ellipse;whiteSpace=wrap;html=1;align=center;fillColor=#ffcccc;strokeColor=#36393d;" parent="1" vertex="1">
          <mxGeometry x="-350" y="930" width="100" height="40" as="geometry" />
        </mxCell>
        <mxCell id="oHuWamwqqKZyfX19s7B0-366" value="has" style="shape=rhombus;perimeter=rhombusPerimeter;whiteSpace=wrap;html=1;align=center;fillColor=#eeeeee;strokeColor=#36393d;" parent="1" vertex="1">
          <mxGeometry x="330" y="1305" width="60" height="45" as="geometry" />
        </mxCell>
        <mxCell id="oHuWamwqqKZyfX19s7B0-367" value="" style="endArrow=none;html=1;rounded=0;exitX=0;exitY=0.5;exitDx=0;exitDy=0;entryX=1;entryY=1;entryDx=0;entryDy=0;" parent="1" source="oHuWamwqqKZyfX19s7B0-366" target="S5t8gtHT40wTGtQgQojj-5" edge="1">
          <mxGeometry relative="1" as="geometry">
            <mxPoint x="410" y="1300" as="sourcePoint" />
            <mxPoint x="60" y="930" as="targetPoint" />
            <Array as="points">
              <mxPoint x="20" y="1330" />
            </Array>
          </mxGeometry>
        </mxCell>
        <mxCell id="oHuWamwqqKZyfX19s7B0-368" value="N" style="resizable=0;html=1;whiteSpace=wrap;align=right;verticalAlign=bottom;" parent="oHuWamwqqKZyfX19s7B0-367" connectable="0" vertex="1">
          <mxGeometry x="1" relative="1" as="geometry">
            <mxPoint x="4" y="23" as="offset" />
          </mxGeometry>
        </mxCell>
        <mxCell id="oHuWamwqqKZyfX19s7B0-369" value="" style="endArrow=none;html=1;rounded=0;exitX=1;exitY=0.5;exitDx=0;exitDy=0;entryX=0;entryY=0;entryDx=0;entryDy=0;" parent="1" source="oHuWamwqqKZyfX19s7B0-366" target="4Eenig6uLWs6y-KD1k0Y-2" edge="1">
          <mxGeometry relative="1" as="geometry">
            <mxPoint x="410" y="1140" as="sourcePoint" />
            <mxPoint x="1269.9999999999995" y="1470" as="targetPoint" />
            <Array as="points">
              <mxPoint x="1270" y="1328" />
            </Array>
          </mxGeometry>
        </mxCell>
        <mxCell id="oHuWamwqqKZyfX19s7B0-370" value="1" style="resizable=0;html=1;whiteSpace=wrap;align=right;verticalAlign=bottom;" parent="oHuWamwqqKZyfX19s7B0-369" connectable="0" vertex="1">
          <mxGeometry x="1" relative="1" as="geometry" />
        </mxCell>
        <mxCell id="oHuWamwqqKZyfX19s7B0-371" style="edgeStyle=orthogonalEdgeStyle;rounded=0;orthogonalLoop=1;jettySize=auto;html=1;exitX=0.5;exitY=1;exitDx=0;exitDy=0;" parent="1" source="oHuWamwqqKZyfX19s7B0-189" target="oHuWamwqqKZyfX19s7B0-189" edge="1">
          <mxGeometry relative="1" as="geometry" />
        </mxCell>
        <mxCell id="oHuWamwqqKZyfX19s7B0-372" style="edgeStyle=orthogonalEdgeStyle;rounded=0;orthogonalLoop=1;jettySize=auto;html=1;exitX=0.5;exitY=1;exitDx=0;exitDy=0;" parent="1" source="oHuWamwqqKZyfX19s7B0-207" target="oHuWamwqqKZyfX19s7B0-207" edge="1">
          <mxGeometry relative="1" as="geometry" />
        </mxCell>
        <mxCell id="oHuWamwqqKZyfX19s7B0-374" value="has" style="shape=rhombus;perimeter=rhombusPerimeter;whiteSpace=wrap;html=1;align=center;fillColor=#eeeeee;strokeColor=#36393d;" parent="1" vertex="1">
          <mxGeometry x="-40" y="1350" width="60" height="30" as="geometry" />
        </mxCell>
        <mxCell id="oHuWamwqqKZyfX19s7B0-375" value="" style="endArrow=none;html=1;rounded=0;exitX=0.5;exitY=1;exitDx=0;exitDy=0;entryX=0.5;entryY=0;entryDx=0;entryDy=0;" parent="1" source="oHuWamwqqKZyfX19s7B0-374" target="MjYStLLJE5w2eZP11G4p-2" edge="1">
          <mxGeometry relative="1" as="geometry">
            <mxPoint x="70" y="1640" as="sourcePoint" />
            <mxPoint x="-10" y="1590" as="targetPoint" />
          </mxGeometry>
        </mxCell>
        <mxCell id="oHuWamwqqKZyfX19s7B0-376" value="1" style="resizable=0;html=1;whiteSpace=wrap;align=right;verticalAlign=bottom;" parent="oHuWamwqqKZyfX19s7B0-375" connectable="0" vertex="1">
          <mxGeometry x="1" relative="1" as="geometry" />
        </mxCell>
        <mxCell id="oHuWamwqqKZyfX19s7B0-377" value="" style="endArrow=none;html=1;rounded=0;exitX=0.5;exitY=0;exitDx=0;exitDy=0;entryX=0.75;entryY=1;entryDx=0;entryDy=0;" parent="1" source="oHuWamwqqKZyfX19s7B0-374" target="S5t8gtHT40wTGtQgQojj-5" edge="1">
          <mxGeometry relative="1" as="geometry">
            <mxPoint x="70" y="1300" as="sourcePoint" />
            <mxPoint x="-10" y="930" as="targetPoint" />
          </mxGeometry>
        </mxCell>
        <mxCell id="oHuWamwqqKZyfX19s7B0-378" value="N" style="resizable=0;html=1;whiteSpace=wrap;align=right;verticalAlign=bottom;" parent="oHuWamwqqKZyfX19s7B0-377" connectable="0" vertex="1">
          <mxGeometry x="1" relative="1" as="geometry">
            <mxPoint x="-10" y="20" as="offset" />
          </mxGeometry>
        </mxCell>
        <mxCell id="oHuWamwqqKZyfX19s7B0-129" value="ID" style="ellipse;whiteSpace=wrap;html=1;align=center;fontStyle=4;fillColor=#ffcccc;strokeColor=#36393d;" parent="1" vertex="1">
          <mxGeometry x="1370" y="1545" width="100" height="40" as="geometry" />
        </mxCell>
        <mxCell id="oHuWamwqqKZyfX19s7B0-412" value="has" style="shape=rhombus;perimeter=rhombusPerimeter;whiteSpace=wrap;html=1;align=center;fillColor=#eeeeee;strokeColor=#36393d;" parent="1" vertex="1">
          <mxGeometry x="895" y="305" width="50" height="40" as="geometry" />
        </mxCell>
        <mxCell id="oHuWamwqqKZyfX19s7B0-413" value="" style="endArrow=none;html=1;rounded=0;exitX=0.5;exitY=0;exitDx=0;exitDy=0;entryX=0;entryY=1;entryDx=0;entryDy=0;" parent="1" source="oHuWamwqqKZyfX19s7B0-412" target="oHuWamwqqKZyfX19s7B0-22" edge="1">
          <mxGeometry relative="1" as="geometry">
            <mxPoint x="790" y="120" as="sourcePoint" />
            <mxPoint x="950" y="120" as="targetPoint" />
          </mxGeometry>
        </mxCell>
        <mxCell id="oHuWamwqqKZyfX19s7B0-414" value="1" style="resizable=0;html=1;whiteSpace=wrap;align=right;verticalAlign=bottom;" parent="oHuWamwqqKZyfX19s7B0-413" connectable="0" vertex="1">
          <mxGeometry x="1" relative="1" as="geometry" />
        </mxCell>
        <mxCell id="oHuWamwqqKZyfX19s7B0-415" value="" style="endArrow=none;html=1;rounded=0;exitX=0.5;exitY=1;exitDx=0;exitDy=0;entryX=0.219;entryY=0.03;entryDx=0;entryDy=0;entryPerimeter=0;" parent="1" source="oHuWamwqqKZyfX19s7B0-412" target="oHuWamwqqKZyfX19s7B0-47" edge="1">
          <mxGeometry relative="1" as="geometry">
            <mxPoint x="790" y="120" as="sourcePoint" />
            <mxPoint x="950" y="120" as="targetPoint" />
          </mxGeometry>
        </mxCell>
        <mxCell id="oHuWamwqqKZyfX19s7B0-416" value="N" style="resizable=0;html=1;whiteSpace=wrap;align=right;verticalAlign=bottom;" parent="oHuWamwqqKZyfX19s7B0-415" connectable="0" vertex="1">
          <mxGeometry x="1" relative="1" as="geometry" />
        </mxCell>
        <mxCell id="OuouIeQms1KpbcXzNO0Q-3" value="City" style="shape=ext;margin=3;double=1;whiteSpace=wrap;html=1;align=center;fillColor=#dae8fc;strokeColor=#6c8ebf;gradientColor=#7ea6e0;" parent="1" vertex="1">
          <mxGeometry x="240" y="135" width="100" height="40" as="geometry" />
        </mxCell>
        <mxCell id="OuouIeQms1KpbcXzNO0Q-7" value="" style="edgeStyle=orthogonalEdgeStyle;rounded=0;orthogonalLoop=1;jettySize=auto;html=1;" parent="1" source="OuouIeQms1KpbcXzNO0Q-4" target="OuouIeQms1KpbcXzNO0Q-3" edge="1">
          <mxGeometry relative="1" as="geometry" />
        </mxCell>
        <mxCell id="OuouIeQms1KpbcXzNO0Q-4" value="ID" style="ellipse;whiteSpace=wrap;html=1;align=center;fontStyle=4;fillColor=#ffcccc;strokeColor=#36393d;" parent="1" vertex="1">
          <mxGeometry x="240" y="10" width="100" height="40" as="geometry" />
        </mxCell>
        <mxCell id="OuouIeQms1KpbcXzNO0Q-8" value="" style="edgeStyle=orthogonalEdgeStyle;rounded=0;orthogonalLoop=1;jettySize=auto;html=1;entryX=0.5;entryY=0;entryDx=0;entryDy=0;" parent="1" source="OuouIeQms1KpbcXzNO0Q-5" target="OuouIeQms1KpbcXzNO0Q-3" edge="1">
          <mxGeometry relative="1" as="geometry" />
        </mxCell>
        <mxCell id="OuouIeQms1KpbcXzNO0Q-5" value="Name" style="ellipse;whiteSpace=wrap;html=1;align=center;fillColor=#ffcccc;strokeColor=#36393d;" parent="1" vertex="1">
          <mxGeometry x="360" y="60" width="100" height="40" as="geometry" />
        </mxCell>
        <mxCell id="OuouIeQms1KpbcXzNO0Q-9" value="" style="edgeStyle=orthogonalEdgeStyle;rounded=0;orthogonalLoop=1;jettySize=auto;html=1;entryX=0.5;entryY=0;entryDx=0;entryDy=0;" parent="1" source="OuouIeQms1KpbcXzNO0Q-6" target="OuouIeQms1KpbcXzNO0Q-3" edge="1">
          <mxGeometry relative="1" as="geometry" />
        </mxCell>
        <mxCell id="OuouIeQms1KpbcXzNO0Q-6" value="CountryID" style="ellipse;whiteSpace=wrap;html=1;align=center;fillColor=#ffcccc;strokeColor=#36393d;" parent="1" vertex="1">
          <mxGeometry x="130" y="60" width="100" height="40" as="geometry" />
        </mxCell>
        <mxCell id="OuouIeQms1KpbcXzNO0Q-10" value="has" style="shape=rhombus;perimeter=rhombusPerimeter;whiteSpace=wrap;html=1;align=center;fillColor=#eeeeee;strokeColor=#36393d;" parent="1" vertex="1">
          <mxGeometry x="50" y="130" width="60" height="50" as="geometry" />
        </mxCell>
        <mxCell id="OuouIeQms1KpbcXzNO0Q-11" value="" style="endArrow=none;html=1;rounded=0;exitX=1;exitY=0.5;exitDx=0;exitDy=0;entryX=0;entryY=0.5;entryDx=0;entryDy=0;" parent="1" source="OuouIeQms1KpbcXzNO0Q-10" target="OuouIeQms1KpbcXzNO0Q-3" edge="1">
          <mxGeometry relative="1" as="geometry">
            <mxPoint x="280" y="250" as="sourcePoint" />
            <mxPoint x="440" y="250" as="targetPoint" />
          </mxGeometry>
        </mxCell>
        <mxCell id="OuouIeQms1KpbcXzNO0Q-12" value="N" style="resizable=0;html=1;whiteSpace=wrap;align=right;verticalAlign=bottom;" parent="OuouIeQms1KpbcXzNO0Q-11" connectable="0" vertex="1">
          <mxGeometry x="1" relative="1" as="geometry" />
        </mxCell>
        <mxCell id="OuouIeQms1KpbcXzNO0Q-13" value="" style="endArrow=none;html=1;rounded=0;exitX=0;exitY=0.5;exitDx=0;exitDy=0;entryX=1;entryY=0.5;entryDx=0;entryDy=0;" parent="1" source="OuouIeQms1KpbcXzNO0Q-10" target="oHuWamwqqKZyfX19s7B0-8" edge="1">
          <mxGeometry relative="1" as="geometry">
            <mxPoint x="280" y="250" as="sourcePoint" />
            <mxPoint x="440" y="250" as="targetPoint" />
          </mxGeometry>
        </mxCell>
        <mxCell id="OuouIeQms1KpbcXzNO0Q-14" value="1" style="resizable=0;html=1;whiteSpace=wrap;align=right;verticalAlign=bottom;" parent="OuouIeQms1KpbcXzNO0Q-13" connectable="0" vertex="1">
          <mxGeometry x="1" relative="1" as="geometry">
            <mxPoint x="10" as="offset" />
          </mxGeometry>
        </mxCell>
        <mxCell id="_M7MYazSiM3wINBsi5YA-2" value="" style="edgeStyle=orthogonalEdgeStyle;rounded=0;orthogonalLoop=1;jettySize=auto;html=1;entryX=0;entryY=0.5;entryDx=0;entryDy=0;exitX=1;exitY=0.5;exitDx=0;exitDy=0;" parent="1" source="MjYStLLJE5w2eZP11G4p-98" target="S5t8gtHT40wTGtQgQojj-5" edge="1">
          <mxGeometry relative="1" as="geometry">
            <mxPoint x="-250.0002777785494" y="1040.0666666666666" as="sourcePoint" />
            <Array as="points">
              <mxPoint x="-240" y="1040" />
              <mxPoint x="-160" y="1040" />
              <mxPoint x="-160" y="900" />
              <mxPoint x="-75" y="900" />
            </Array>
            <mxPoint x="-80" y="900" as="targetPoint" />
          </mxGeometry>
        </mxCell>
        <mxCell id="_M7MYazSiM3wINBsi5YA-3" value="has" style="shape=rhombus;perimeter=rhombusPerimeter;whiteSpace=wrap;html=1;align=center;fillColor=#f5f5f5;fontColor=#333333;strokeColor=#666666;" parent="1" vertex="1">
          <mxGeometry x="-540" y="1550" width="40" height="25" as="geometry" />
        </mxCell>
        <mxCell id="_M7MYazSiM3wINBsi5YA-4" value="" style="endArrow=none;html=1;rounded=0;entryX=0;entryY=0.5;entryDx=0;entryDy=0;exitX=0.5;exitY=0;exitDx=0;exitDy=0;" parent="1" source="_M7MYazSiM3wINBsi5YA-3" target="MjYStLLJE5w2eZP11G4p-55" edge="1">
          <mxGeometry relative="1" as="geometry">
            <mxPoint y="1150" as="sourcePoint" />
            <mxPoint x="160" y="1150" as="targetPoint" />
            <Array as="points">
              <mxPoint x="-520" y="1370" />
            </Array>
          </mxGeometry>
        </mxCell>
        <mxCell id="_M7MYazSiM3wINBsi5YA-5" value="N" style="resizable=0;html=1;whiteSpace=wrap;align=right;verticalAlign=bottom;" parent="_M7MYazSiM3wINBsi5YA-4" connectable="0" vertex="1">
          <mxGeometry x="1" relative="1" as="geometry">
            <mxPoint y="23" as="offset" />
          </mxGeometry>
        </mxCell>
        <mxCell id="_M7MYazSiM3wINBsi5YA-6" value="" style="endArrow=none;html=1;rounded=0;entryX=0;entryY=0;entryDx=0;entryDy=0;exitX=0.5;exitY=1;exitDx=0;exitDy=0;" parent="1" source="_M7MYazSiM3wINBsi5YA-3" target="MjYStLLJE5w2eZP11G4p-1" edge="1">
          <mxGeometry relative="1" as="geometry">
            <mxPoint x="40" y="1380" as="sourcePoint" />
            <mxPoint x="370" y="1585" as="targetPoint" />
          </mxGeometry>
        </mxCell>
        <mxCell id="_M7MYazSiM3wINBsi5YA-7" value="1" style="resizable=0;html=1;whiteSpace=wrap;align=right;verticalAlign=bottom;" parent="_M7MYazSiM3wINBsi5YA-6" connectable="0" vertex="1">
          <mxGeometry x="1" relative="1" as="geometry" />
        </mxCell>
        <mxCell id="MjYStLLJE5w2eZP11G4p-1" value="Card" style="shape=ext;margin=3;double=1;whiteSpace=wrap;html=1;align=center;fillColor=#dae8fc;gradientColor=#7ea6e0;strokeColor=#6c8ebf;" parent="1" vertex="1">
          <mxGeometry x="-520" y="1640" width="100" height="40" as="geometry" />
        </mxCell>
        <mxCell id="MjYStLLJE5w2eZP11G4p-2" value="Payer" style="shape=ext;margin=3;double=1;whiteSpace=wrap;html=1;align=center;fillColor=#dae8fc;gradientColor=#7ea6e0;strokeColor=#6c8ebf;" parent="1" vertex="1">
          <mxGeometry x="-65" y="1600" width="110" height="40" as="geometry" />
        </mxCell>
        <mxCell id="MjYStLLJE5w2eZP11G4p-5" value="Account" style="whiteSpace=wrap;html=1;align=center;fillColor=#dae8fc;gradientColor=#7ea6e0;strokeColor=#6c8ebf;" parent="1" vertex="1">
          <mxGeometry x="490" y="1600" width="100" height="40" as="geometry" />
        </mxCell>
        <mxCell id="MjYStLLJE5w2eZP11G4p-12" value="" style="edgeStyle=orthogonalEdgeStyle;rounded=0;orthogonalLoop=1;jettySize=auto;html=1;entryX=0.5;entryY=1;entryDx=0;entryDy=0;exitX=1;exitY=0.5;exitDx=0;exitDy=0;" parent="1" source="MjYStLLJE5w2eZP11G4p-8" target="MjYStLLJE5w2eZP11G4p-5" edge="1">
          <mxGeometry relative="1" as="geometry">
            <mxPoint x="-470" y="1720" as="targetPoint" />
          </mxGeometry>
        </mxCell>
        <mxCell id="MjYStLLJE5w2eZP11G4p-7" value="Email" style="ellipse;whiteSpace=wrap;html=1;align=center;fillColor=#ffcccc;strokeColor=#36393d;" parent="1" vertex="1">
          <mxGeometry x="580" y="1660" width="100" height="40" as="geometry" />
        </mxCell>
        <mxCell id="MjYStLLJE5w2eZP11G4p-13" value="" style="edgeStyle=orthogonalEdgeStyle;rounded=0;orthogonalLoop=1;jettySize=auto;html=1;entryX=0.5;entryY=1;entryDx=0;entryDy=0;exitX=0;exitY=0.5;exitDx=0;exitDy=0;" parent="1" source="MjYStLLJE5w2eZP11G4p-9" target="MjYStLLJE5w2eZP11G4p-5" edge="1">
          <mxGeometry relative="1" as="geometry">
            <Array as="points">
              <mxPoint x="540" y="1730" />
            </Array>
          </mxGeometry>
        </mxCell>
        <mxCell id="MjYStLLJE5w2eZP11G4p-9" value="Password" style="ellipse;whiteSpace=wrap;html=1;align=center;fillColor=#ffcccc;strokeColor=#36393d;" parent="1" vertex="1">
          <mxGeometry x="587.5" y="1710" width="100" height="40" as="geometry" />
        </mxCell>
        <mxCell id="MjYStLLJE5w2eZP11G4p-14" value="has" style="shape=rhombus;perimeter=rhombusPerimeter;whiteSpace=wrap;html=1;align=center;fillColor=#eeeeee;strokeColor=#36393d;" parent="1" vertex="1">
          <mxGeometry x="260" y="1610" width="50" height="20" as="geometry" />
        </mxCell>
        <mxCell id="MjYStLLJE5w2eZP11G4p-17" value="" style="endArrow=none;html=1;rounded=0;dashed=1;dashPattern=1 2;entryX=1;entryY=0.5;entryDx=0;entryDy=0;exitX=0;exitY=0.5;exitDx=0;exitDy=0;" parent="1" source="MjYStLLJE5w2eZP11G4p-14" target="MjYStLLJE5w2eZP11G4p-2" edge="1">
          <mxGeometry relative="1" as="geometry">
            <mxPoint x="390" y="1620" as="sourcePoint" />
            <mxPoint x="-140" y="1740" as="targetPoint" />
          </mxGeometry>
        </mxCell>
        <mxCell id="MjYStLLJE5w2eZP11G4p-22" value="" style="edgeStyle=orthogonalEdgeStyle;rounded=0;orthogonalLoop=1;jettySize=auto;html=1;entryX=0.5;entryY=1;entryDx=0;entryDy=0;" parent="1" source="MjYStLLJE5w2eZP11G4p-21" target="MjYStLLJE5w2eZP11G4p-5" edge="1">
          <mxGeometry relative="1" as="geometry" />
        </mxCell>
        <mxCell id="MjYStLLJE5w2eZP11G4p-21" value="Phone" style="ellipse;whiteSpace=wrap;html=1;align=center;fillColor=#ffcccc;strokeColor=#36393d;" parent="1" vertex="1">
          <mxGeometry x="490" y="1760" width="100" height="40" as="geometry" />
        </mxCell>
        <mxCell id="MjYStLLJE5w2eZP11G4p-23" value="has" style="shape=rhombus;perimeter=rhombusPerimeter;whiteSpace=wrap;html=1;align=center;fillColor=#eeeeee;strokeColor=#36393d;" parent="1" vertex="1">
          <mxGeometry x="-580" y="1615" width="40" height="20" as="geometry" />
        </mxCell>
        <mxCell id="MjYStLLJE5w2eZP11G4p-24" value="" style="endArrow=none;html=1;rounded=0;entryX=0;entryY=0.5;entryDx=0;entryDy=0;exitX=1;exitY=0.5;exitDx=0;exitDy=0;" parent="1" source="MjYStLLJE5w2eZP11G4p-23" target="MjYStLLJE5w2eZP11G4p-2" edge="1">
          <mxGeometry relative="1" as="geometry">
            <mxPoint x="-540" y="1630" as="sourcePoint" />
            <mxPoint x="-260" y="1540" as="targetPoint" />
          </mxGeometry>
        </mxCell>
        <mxCell id="MjYStLLJE5w2eZP11G4p-25" value="1" style="resizable=0;html=1;whiteSpace=wrap;align=right;verticalAlign=bottom;" parent="MjYStLLJE5w2eZP11G4p-24" connectable="0" vertex="1">
          <mxGeometry x="1" relative="1" as="geometry" />
        </mxCell>
        <mxCell id="MjYStLLJE5w2eZP11G4p-28" value="" style="endArrow=none;html=1;rounded=0;exitX=0.5;exitY=0;exitDx=0;exitDy=0;entryX=0.918;entryY=1.044;entryDx=0;entryDy=0;entryPerimeter=0;" parent="1" source="MjYStLLJE5w2eZP11G4p-23" target="oHuWamwqqKZyfX19s7B0-68" edge="1">
          <mxGeometry relative="1" as="geometry">
            <mxPoint x="-420" y="1540" as="sourcePoint" />
            <mxPoint x="-260" y="1540" as="targetPoint" />
            <Array as="points">
              <mxPoint x="-560" y="1090" />
              <mxPoint x="-706" y="1090" />
            </Array>
          </mxGeometry>
        </mxCell>
        <mxCell id="MjYStLLJE5w2eZP11G4p-29" value="N" style="resizable=0;html=1;whiteSpace=wrap;align=right;verticalAlign=bottom;" parent="MjYStLLJE5w2eZP11G4p-28" connectable="0" vertex="1">
          <mxGeometry x="1" relative="1" as="geometry" />
        </mxCell>
        <mxCell id="MjYStLLJE5w2eZP11G4p-31" value="" style="edgeStyle=orthogonalEdgeStyle;rounded=0;orthogonalLoop=1;jettySize=auto;html=1;entryX=0;entryY=0.5;entryDx=0;entryDy=0;" parent="1" source="oHuWamwqqKZyfX19s7B0-6" target="oHuWamwqqKZyfX19s7B0-11" edge="1">
          <mxGeometry relative="1" as="geometry" />
        </mxCell>
        <mxCell id="MjYStLLJE5w2eZP11G4p-30" value="Tax" style="ellipse;whiteSpace=wrap;html=1;align=center;fillColor=#ffcccc;strokeColor=#36393d;" parent="1" vertex="1">
          <mxGeometry x="30" y="430" width="100" height="40" as="geometry" />
        </mxCell>
        <mxCell id="MjYStLLJE5w2eZP11G4p-34" value="" style="edgeStyle=orthogonalEdgeStyle;rounded=0;orthogonalLoop=1;jettySize=auto;html=1;exitX=0;exitY=0.5;exitDx=0;exitDy=0;" parent="1" source="MjYStLLJE5w2eZP11G4p-36" target="oHuWamwqqKZyfX19s7B0-94" edge="1">
          <mxGeometry relative="1" as="geometry">
            <mxPoint x="845" y="690" as="sourcePoint" />
          </mxGeometry>
        </mxCell>
        <mxCell id="MjYStLLJE5w2eZP11G4p-36" value="Terminal_ID" style="ellipse;whiteSpace=wrap;html=1;align=center;fillColor=#ffcccc;strokeColor=#36393d;" parent="1" vertex="1">
          <mxGeometry x="840" y="665" width="100" height="40" as="geometry" />
        </mxCell>
        <mxCell id="MjYStLLJE5w2eZP11G4p-37" value="" style="edgeStyle=orthogonalEdgeStyle;rounded=0;orthogonalLoop=1;jettySize=auto;html=1;entryX=0;entryY=0.5;entryDx=0;entryDy=0;" parent="1" source="MjYStLLJE5w2eZP11G4p-30" target="oHuWamwqqKZyfX19s7B0-11" edge="1">
          <mxGeometry relative="1" as="geometry">
            <mxPoint x="620" y="463" as="sourcePoint" />
            <mxPoint x="340" y="425" as="targetPoint" />
            <Array as="points">
              <mxPoint x="180" y="450" />
              <mxPoint x="180" y="390" />
            </Array>
          </mxGeometry>
        </mxCell>
        <mxCell id="oHuWamwqqKZyfX19s7B0-6" value="Name" style="ellipse;whiteSpace=wrap;html=1;align=center;fillColor=#ffcccc;strokeColor=#36393d;" parent="1" vertex="1">
          <mxGeometry x="30" y="380" width="100" height="40" as="geometry" />
        </mxCell>
        <mxCell id="MjYStLLJE5w2eZP11G4p-38" value="Terminal" style="shape=ext;margin=3;double=1;whiteSpace=wrap;html=1;align=center;fillColor=#dae8fc;gradientColor=#7ea6e0;strokeColor=#6c8ebf;" parent="1" vertex="1">
          <mxGeometry x="590" y="355" width="100" height="40" as="geometry" />
        </mxCell>
        <mxCell id="MjYStLLJE5w2eZP11G4p-44" value="" style="edgeStyle=orthogonalEdgeStyle;rounded=0;orthogonalLoop=1;jettySize=auto;html=1;entryX=0.5;entryY=0;entryDx=0;entryDy=0;exitX=0;exitY=0.5;exitDx=0;exitDy=0;" parent="1" source="MjYStLLJE5w2eZP11G4p-39" target="MjYStLLJE5w2eZP11G4p-38" edge="1">
          <mxGeometry relative="1" as="geometry" />
        </mxCell>
        <mxCell id="MjYStLLJE5w2eZP11G4p-39" value="ID" style="ellipse;whiteSpace=wrap;html=1;align=center;fontStyle=4;fillColor=#ffcccc;strokeColor=#36393d;" parent="1" vertex="1">
          <mxGeometry x="680" y="285" width="100" height="40" as="geometry" />
        </mxCell>
        <mxCell id="MjYStLLJE5w2eZP11G4p-42" value="" style="edgeStyle=orthogonalEdgeStyle;rounded=0;orthogonalLoop=1;jettySize=auto;html=1;" parent="1" source="MjYStLLJE5w2eZP11G4p-40" target="MjYStLLJE5w2eZP11G4p-38" edge="1">
          <mxGeometry relative="1" as="geometry" />
        </mxCell>
        <mxCell id="MjYStLLJE5w2eZP11G4p-40" value="AirportID" style="ellipse;whiteSpace=wrap;html=1;align=center;fillColor=#ffcccc;strokeColor=#36393d;" parent="1" vertex="1">
          <mxGeometry x="590" y="245" width="100" height="40" as="geometry" />
        </mxCell>
        <mxCell id="MjYStLLJE5w2eZP11G4p-43" value="" style="edgeStyle=orthogonalEdgeStyle;rounded=0;orthogonalLoop=1;jettySize=auto;html=1;entryX=0.5;entryY=0;entryDx=0;entryDy=0;exitX=1;exitY=0.5;exitDx=0;exitDy=0;" parent="1" source="MjYStLLJE5w2eZP11G4p-41" target="MjYStLLJE5w2eZP11G4p-38" edge="1">
          <mxGeometry relative="1" as="geometry" />
        </mxCell>
        <mxCell id="MjYStLLJE5w2eZP11G4p-41" value="Name" style="ellipse;whiteSpace=wrap;html=1;align=center;fillColor=#ffcccc;strokeColor=#36393d;" parent="1" vertex="1">
          <mxGeometry x="510" y="285" width="100" height="40" as="geometry" />
        </mxCell>
        <mxCell id="MjYStLLJE5w2eZP11G4p-45" value="has" style="shape=rhombus;perimeter=rhombusPerimeter;whiteSpace=wrap;html=1;align=center;fillColor=#eeeeee;strokeColor=#36393d;" parent="1" vertex="1">
          <mxGeometry x="615" y="515" width="50" height="30" as="geometry" />
        </mxCell>
        <mxCell id="MjYStLLJE5w2eZP11G4p-46" value="has" style="shape=rhombus;perimeter=rhombusPerimeter;whiteSpace=wrap;html=1;align=center;fillColor=#eeeeee;strokeColor=#36393d;" parent="1" vertex="1">
          <mxGeometry x="460" y="360" width="40" height="30" as="geometry" />
        </mxCell>
        <mxCell id="MjYStLLJE5w2eZP11G4p-47" value="" style="endArrow=none;html=1;rounded=0;entryX=1;entryY=0.25;entryDx=0;entryDy=0;exitX=0;exitY=0.5;exitDx=0;exitDy=0;" parent="1" source="MjYStLLJE5w2eZP11G4p-46" target="oHuWamwqqKZyfX19s7B0-11" edge="1">
          <mxGeometry relative="1" as="geometry">
            <mxPoint x="390" y="540" as="sourcePoint" />
            <mxPoint x="550" y="540" as="targetPoint" />
          </mxGeometry>
        </mxCell>
        <mxCell id="MjYStLLJE5w2eZP11G4p-48" value="1" style="resizable=0;html=1;whiteSpace=wrap;align=right;verticalAlign=bottom;" parent="MjYStLLJE5w2eZP11G4p-47" connectable="0" vertex="1">
          <mxGeometry x="1" relative="1" as="geometry">
            <mxPoint x="15" as="offset" />
          </mxGeometry>
        </mxCell>
        <mxCell id="MjYStLLJE5w2eZP11G4p-49" value="" style="endArrow=none;html=1;rounded=0;entryX=0;entryY=0.5;entryDx=0;entryDy=0;exitX=1;exitY=0.5;exitDx=0;exitDy=0;" parent="1" source="MjYStLLJE5w2eZP11G4p-46" target="MjYStLLJE5w2eZP11G4p-38" edge="1">
          <mxGeometry relative="1" as="geometry">
            <mxPoint x="390" y="540" as="sourcePoint" />
            <mxPoint x="550" y="540" as="targetPoint" />
          </mxGeometry>
        </mxCell>
        <mxCell id="MjYStLLJE5w2eZP11G4p-50" value="N" style="resizable=0;html=1;whiteSpace=wrap;align=right;verticalAlign=bottom;" parent="MjYStLLJE5w2eZP11G4p-49" connectable="0" vertex="1">
          <mxGeometry x="1" relative="1" as="geometry" />
        </mxCell>
        <mxCell id="MjYStLLJE5w2eZP11G4p-51" value="" style="endArrow=none;html=1;rounded=0;dashed=1;dashPattern=1 2;exitX=0.5;exitY=1;exitDx=0;exitDy=0;entryX=0.5;entryY=0;entryDx=0;entryDy=0;" parent="1" source="MjYStLLJE5w2eZP11G4p-45" target="oHuWamwqqKZyfX19s7B0-94" edge="1">
          <mxGeometry relative="1" as="geometry">
            <mxPoint x="390" y="540" as="sourcePoint" />
            <mxPoint x="550" y="540" as="targetPoint" />
          </mxGeometry>
        </mxCell>
        <mxCell id="MjYStLLJE5w2eZP11G4p-52" value="N" style="resizable=0;html=1;whiteSpace=wrap;align=right;verticalAlign=bottom;" parent="MjYStLLJE5w2eZP11G4p-51" connectable="0" vertex="1">
          <mxGeometry x="1" relative="1" as="geometry" />
        </mxCell>
        <mxCell id="MjYStLLJE5w2eZP11G4p-53" value="" style="endArrow=none;html=1;rounded=0;entryX=0.5;entryY=1;entryDx=0;entryDy=0;exitX=0.5;exitY=0;exitDx=0;exitDy=0;" parent="1" source="MjYStLLJE5w2eZP11G4p-45" target="MjYStLLJE5w2eZP11G4p-38" edge="1">
          <mxGeometry relative="1" as="geometry">
            <mxPoint x="390" y="540" as="sourcePoint" />
            <mxPoint x="550" y="540" as="targetPoint" />
          </mxGeometry>
        </mxCell>
        <mxCell id="MjYStLLJE5w2eZP11G4p-54" value="1" style="resizable=0;html=1;whiteSpace=wrap;align=right;verticalAlign=bottom;" parent="MjYStLLJE5w2eZP11G4p-53" connectable="0" vertex="1">
          <mxGeometry x="1" relative="1" as="geometry">
            <mxPoint y="20" as="offset" />
          </mxGeometry>
        </mxCell>
        <mxCell id="MjYStLLJE5w2eZP11G4p-55" value="Payments" style="shape=ext;margin=3;double=1;whiteSpace=wrap;html=1;align=center;fillColor=#dae8fc;gradientColor=#7ea6e0;strokeColor=#6c8ebf;" parent="1" vertex="1">
          <mxGeometry x="-390" y="1350" width="100" height="40" as="geometry" />
        </mxCell>
        <mxCell id="MjYStLLJE5w2eZP11G4p-62" value="" style="edgeStyle=orthogonalEdgeStyle;rounded=0;orthogonalLoop=1;jettySize=auto;html=1;entryX=0.5;entryY=1;entryDx=0;entryDy=0;exitX=1;exitY=0.5;exitDx=0;exitDy=0;" parent="1" source="MjYStLLJE5w2eZP11G4p-56" target="MjYStLLJE5w2eZP11G4p-55" edge="1">
          <mxGeometry relative="1" as="geometry">
            <Array as="points">
              <mxPoint x="-340" y="1413" />
            </Array>
          </mxGeometry>
        </mxCell>
        <mxCell id="MjYStLLJE5w2eZP11G4p-56" value="ID" style="ellipse;whiteSpace=wrap;html=1;align=center;fontStyle=4;fillColor=#ffcccc;strokeColor=#36393d;" parent="1" vertex="1">
          <mxGeometry x="-490" y="1392.5" width="100" height="40" as="geometry" />
        </mxCell>
        <mxCell id="MjYStLLJE5w2eZP11G4p-63" value="" style="edgeStyle=orthogonalEdgeStyle;rounded=0;orthogonalLoop=1;jettySize=auto;html=1;entryX=0.5;entryY=1;entryDx=0;entryDy=0;exitX=0;exitY=0.5;exitDx=0;exitDy=0;" parent="1" source="MjYStLLJE5w2eZP11G4p-58" target="MjYStLLJE5w2eZP11G4p-55" edge="1">
          <mxGeometry relative="1" as="geometry">
            <mxPoint x="-340" y="1400" as="targetPoint" />
            <Array as="points">
              <mxPoint x="-340" y="1415" />
            </Array>
          </mxGeometry>
        </mxCell>
        <mxCell id="MjYStLLJE5w2eZP11G4p-58" value="&lt;span style=&quot;border-bottom: 1px dotted&quot;&gt;CardID&lt;/span&gt;" style="ellipse;whiteSpace=wrap;html=1;align=center;fillColor=#ffcccc;strokeColor=#36393d;" parent="1" vertex="1">
          <mxGeometry x="-300" y="1395" width="100" height="40" as="geometry" />
        </mxCell>
        <mxCell id="MjYStLLJE5w2eZP11G4p-65" value="" style="edgeStyle=orthogonalEdgeStyle;rounded=0;orthogonalLoop=1;jettySize=auto;html=1;entryX=0.5;entryY=1;entryDx=0;entryDy=0;exitX=1;exitY=0.5;exitDx=0;exitDy=0;" parent="1" source="MjYStLLJE5w2eZP11G4p-59" target="MjYStLLJE5w2eZP11G4p-55" edge="1">
          <mxGeometry relative="1" as="geometry">
            <Array as="points">
              <mxPoint x="-390" y="1460" />
              <mxPoint x="-340" y="1460" />
            </Array>
          </mxGeometry>
        </mxCell>
        <mxCell id="MjYStLLJE5w2eZP11G4p-59" value="&lt;span style=&quot;border-bottom: 1px dotted&quot;&gt;PayerID&lt;/span&gt;" style="ellipse;whiteSpace=wrap;html=1;align=center;fillColor=#ffcccc;strokeColor=#36393d;" parent="1" vertex="1">
          <mxGeometry x="-490" y="1435" width="100" height="40" as="geometry" />
        </mxCell>
        <mxCell id="MjYStLLJE5w2eZP11G4p-64" value="" style="edgeStyle=orthogonalEdgeStyle;rounded=0;orthogonalLoop=1;jettySize=auto;html=1;entryX=0.5;entryY=1;entryDx=0;entryDy=0;exitX=0;exitY=0.5;exitDx=0;exitDy=0;" parent="1" source="MjYStLLJE5w2eZP11G4p-60" target="MjYStLLJE5w2eZP11G4p-55" edge="1">
          <mxGeometry relative="1" as="geometry">
            <Array as="points">
              <mxPoint x="-340" y="1458" />
            </Array>
          </mxGeometry>
        </mxCell>
        <mxCell id="MjYStLLJE5w2eZP11G4p-60" value="Date" style="ellipse;whiteSpace=wrap;html=1;align=center;fillColor=#ffcccc;strokeColor=#36393d;" parent="1" vertex="1">
          <mxGeometry x="-300" y="1440" width="100" height="40" as="geometry" />
        </mxCell>
        <mxCell id="MjYStLLJE5w2eZP11G4p-66" value="" style="edgeStyle=orthogonalEdgeStyle;rounded=0;orthogonalLoop=1;jettySize=auto;html=1;entryX=0.5;entryY=1;entryDx=0;entryDy=0;exitX=1;exitY=0.5;exitDx=0;exitDy=0;" parent="1" source="MjYStLLJE5w2eZP11G4p-61" target="MjYStLLJE5w2eZP11G4p-55" edge="1">
          <mxGeometry relative="1" as="geometry">
            <Array as="points">
              <mxPoint x="-340" y="1510" />
            </Array>
          </mxGeometry>
        </mxCell>
        <mxCell id="MjYStLLJE5w2eZP11G4p-61" value="Sum" style="ellipse;whiteSpace=wrap;html=1;align=center;fillColor=#ffcccc;strokeColor=#36393d;" parent="1" vertex="1">
          <mxGeometry x="-490" y="1490" width="100" height="40" as="geometry" />
        </mxCell>
        <mxCell id="MjYStLLJE5w2eZP11G4p-67" value="has" style="shape=rhombus;perimeter=rhombusPerimeter;whiteSpace=wrap;html=1;align=center;fillColor=#eeeeee;strokeColor=#36393d;" parent="1" vertex="1">
          <mxGeometry x="-72.5" y="1140" width="65" height="30" as="geometry" />
        </mxCell>
        <mxCell id="MjYStLLJE5w2eZP11G4p-68" value="" style="endArrow=none;html=1;rounded=0;exitX=0.5;exitY=1;exitDx=0;exitDy=0;entryX=1;entryY=0;entryDx=0;entryDy=0;" parent="1" source="MjYStLLJE5w2eZP11G4p-67" target="MjYStLLJE5w2eZP11G4p-55" edge="1">
          <mxGeometry relative="1" as="geometry">
            <mxPoint x="-160" y="1340" as="sourcePoint" />
            <mxPoint y="1340" as="targetPoint" />
            <Array as="points">
              <mxPoint x="-40" y="1350" />
            </Array>
          </mxGeometry>
        </mxCell>
        <mxCell id="MjYStLLJE5w2eZP11G4p-69" value="1" style="resizable=0;html=1;whiteSpace=wrap;align=right;verticalAlign=bottom;" parent="MjYStLLJE5w2eZP11G4p-68" connectable="0" vertex="1">
          <mxGeometry x="1" relative="1" as="geometry" />
        </mxCell>
        <mxCell id="MjYStLLJE5w2eZP11G4p-70" value="" style="endArrow=none;html=1;rounded=0;exitX=0.5;exitY=0;exitDx=0;exitDy=0;entryX=0.5;entryY=1;entryDx=0;entryDy=0;" parent="1" source="MjYStLLJE5w2eZP11G4p-67" target="S5t8gtHT40wTGtQgQojj-5" edge="1">
          <mxGeometry relative="1" as="geometry">
            <mxPoint x="-160" y="1140" as="sourcePoint" />
            <mxPoint x="-40" y="930" as="targetPoint" />
          </mxGeometry>
        </mxCell>
        <mxCell id="MjYStLLJE5w2eZP11G4p-71" value="1" style="resizable=0;html=1;whiteSpace=wrap;align=right;verticalAlign=bottom;" parent="MjYStLLJE5w2eZP11G4p-70" connectable="0" vertex="1">
          <mxGeometry x="1" relative="1" as="geometry">
            <mxPoint x="-10" y="20" as="offset" />
          </mxGeometry>
        </mxCell>
        <mxCell id="MjYStLLJE5w2eZP11G4p-73" value="" style="edgeStyle=orthogonalEdgeStyle;rounded=0;orthogonalLoop=1;jettySize=auto;html=1;entryX=0.5;entryY=1;entryDx=0;entryDy=0;exitX=0;exitY=0.5;exitDx=0;exitDy=0;" parent="1" target="MjYStLLJE5w2eZP11G4p-55" edge="1">
          <mxGeometry relative="1" as="geometry">
            <mxPoint x="-290.0000000000002" y="1510" as="sourcePoint" />
            <Array as="points">
              <mxPoint x="-340" y="1510" />
            </Array>
          </mxGeometry>
        </mxCell>
        <mxCell id="MjYStLLJE5w2eZP11G4p-74" value="&lt;div style=&quot;&quot;&gt;&lt;font face=&quot;Times New Roman&quot;&gt;&lt;i&gt;Стъпки&lt;/i&gt;&lt;/font&gt;&lt;/div&gt;&lt;div style=&quot;&quot;&gt;&lt;font face=&quot;Times New Roman&quot;&gt;Забележка: Клиентът, който прави резервация се смята за платец на резервацията.&lt;/font&gt;&lt;/div&gt;&lt;div style=&quot;&quot;&gt;&lt;font face=&quot;Times New Roman&quot;&gt;0. Платецът си прави регистрация в сайта. / може и на по- късен етап/&lt;/font&gt;&lt;/div&gt;&lt;div style=&quot;&quot;&gt;&lt;font face=&quot;Times New Roman&quot;&gt;1. Въвежда желана дестинация от и до кое летище, като и съответната/ съответните дати.&lt;/font&gt;&lt;/div&gt;&lt;div style=&quot;&quot;&gt;&lt;font face=&quot;Times New Roman&quot;&gt;2. Системата извежда полетите, отговарящи на изискаването.&lt;/font&gt;&lt;/div&gt;&lt;div style=&quot;&quot;&gt;&lt;font face=&quot;Times New Roman&quot;&gt;3. Платецът избира да направи резервация. Прави си регистрация в системата, ако до сега не е направил.&lt;/font&gt;&lt;/div&gt;&lt;div style=&quot;&quot;&gt;&lt;font face=&quot;Times New Roman&quot;&gt;Въвежда данни за клиента /човекът, който ще пътува/, избира си застраховка, багаж, тип на клиента и т.н.&lt;/font&gt;&lt;/div&gt;&lt;div style=&quot;&quot;&gt;&lt;font face=&quot;Times New Roman&quot;&gt;4. Клиентът завършва резервацията като плаща нея.&lt;/font&gt;&lt;/div&gt;&lt;div style=&quot;&quot;&gt;&lt;font face=&quot;Times New Roman&quot;&gt;&lt;br&gt;&lt;/font&gt;&lt;/div&gt;&lt;div style=&quot;&quot;&gt;&lt;font face=&quot;Times New Roman&quot;&gt;&lt;i&gt;Steps&lt;/i&gt;&lt;/font&gt;&lt;/div&gt;&lt;div style=&quot;&quot;&gt;&lt;font face=&quot;Times New Roman&quot;&gt;Note: The customer making the reservation is considered the payer of the reservation.&lt;/font&gt;&lt;/div&gt;&lt;div style=&quot;&quot;&gt;&lt;font face=&quot;Times New Roman&quot;&gt;0. The payer registers on the site. / maybe at a later stage/&lt;/font&gt;&lt;/div&gt;&lt;div style=&quot;&quot;&gt;&lt;font face=&quot;Times New Roman&quot;&gt;1. Enter the desired destination from and to which airport, as well as cost/expensive dates.&lt;/font&gt;&lt;/div&gt;&lt;div style=&quot;&quot;&gt;&lt;font face=&quot;Times New Roman&quot;&gt;2. The system displays the flights that meet the requirement.&lt;/font&gt;&lt;/div&gt;&lt;div style=&quot;&quot;&gt;&lt;font face=&quot;Times New Roman&quot;&gt;3. The payer chooses to make a reservation. Register the system if it is not correct by now.&lt;/font&gt;&lt;/div&gt;&lt;div style=&quot;&quot;&gt;&lt;font face=&quot;Times New Roman&quot;&gt;Enters data about the client /the person who will travel/, chooses insurance, baggage, type of client, etc.&lt;/font&gt;&lt;/div&gt;&lt;div style=&quot;&quot;&gt;&lt;font face=&quot;Times New Roman&quot;&gt;4. The customer completes the reservation by paying for it.&lt;/font&gt;&lt;/div&gt;" style="text;html=1;align=center;verticalAlign=middle;resizable=0;points=[];autosize=1;strokeColor=none;fillColor=none;" parent="1" vertex="1">
          <mxGeometry x="1580" y="800" width="560" height="260" as="geometry" />
        </mxCell>
        <mxCell id="MjYStLLJE5w2eZP11G4p-75" value="has" style="shape=rhombus;perimeter=rhombusPerimeter;whiteSpace=wrap;html=1;align=center;fillColor=#eeeeee;strokeColor=#36393d;" parent="1" vertex="1">
          <mxGeometry x="-60" y="1465" width="40" height="30" as="geometry" />
        </mxCell>
        <mxCell id="MjYStLLJE5w2eZP11G4p-76" value="" style="endArrow=none;html=1;rounded=0;exitX=0.5;exitY=1;exitDx=0;exitDy=0;entryX=0.25;entryY=0;entryDx=0;entryDy=0;" parent="1" source="MjYStLLJE5w2eZP11G4p-75" target="MjYStLLJE5w2eZP11G4p-2" edge="1">
          <mxGeometry relative="1" as="geometry">
            <mxPoint x="-190" y="1540" as="sourcePoint" />
            <mxPoint x="-30" y="1540" as="targetPoint" />
          </mxGeometry>
        </mxCell>
        <mxCell id="MjYStLLJE5w2eZP11G4p-77" value="1" style="resizable=0;html=1;whiteSpace=wrap;align=right;verticalAlign=bottom;" parent="MjYStLLJE5w2eZP11G4p-76" connectable="0" vertex="1">
          <mxGeometry x="1" relative="1" as="geometry" />
        </mxCell>
        <mxCell id="MjYStLLJE5w2eZP11G4p-78" value="" style="endArrow=none;html=1;rounded=0;entryX=1;entryY=0.5;entryDx=0;entryDy=0;exitX=0.5;exitY=0;exitDx=0;exitDy=0;" parent="1" source="MjYStLLJE5w2eZP11G4p-75" target="MjYStLLJE5w2eZP11G4p-55" edge="1">
          <mxGeometry relative="1" as="geometry">
            <mxPoint x="-190" y="1540" as="sourcePoint" />
            <mxPoint x="-30" y="1540" as="targetPoint" />
            <Array as="points">
              <mxPoint x="-40" y="1370" />
            </Array>
          </mxGeometry>
        </mxCell>
        <mxCell id="MjYStLLJE5w2eZP11G4p-79" value="N" style="resizable=0;html=1;whiteSpace=wrap;align=right;verticalAlign=bottom;" parent="MjYStLLJE5w2eZP11G4p-78" connectable="0" vertex="1">
          <mxGeometry x="1" relative="1" as="geometry">
            <mxPoint x="20" as="offset" />
          </mxGeometry>
        </mxCell>
        <mxCell id="MjYStLLJE5w2eZP11G4p-90" value="" style="endArrow=none;html=1;rounded=0;entryX=0;entryY=0.5;entryDx=0;entryDy=0;exitX=1;exitY=0.5;exitDx=0;exitDy=0;" parent="1" source="MjYStLLJE5w2eZP11G4p-14" target="MjYStLLJE5w2eZP11G4p-5" edge="1">
          <mxGeometry relative="1" as="geometry">
            <mxPoint x="300" y="1770" as="sourcePoint" />
            <mxPoint x="530" y="1690" as="targetPoint" />
          </mxGeometry>
        </mxCell>
        <mxCell id="MjYStLLJE5w2eZP11G4p-91" value="1" style="resizable=0;html=1;whiteSpace=wrap;align=right;verticalAlign=bottom;" parent="MjYStLLJE5w2eZP11G4p-90" connectable="0" vertex="1">
          <mxGeometry x="1" relative="1" as="geometry" />
        </mxCell>
        <mxCell id="MjYStLLJE5w2eZP11G4p-92" value="" style="edgeStyle=orthogonalEdgeStyle;rounded=0;orthogonalLoop=1;jettySize=auto;html=1;entryX=0.5;entryY=1;entryDx=0;entryDy=0;exitX=0;exitY=0.5;exitDx=0;exitDy=0;" parent="1" source="MjYStLLJE5w2eZP11G4p-7" target="MjYStLLJE5w2eZP11G4p-5" edge="1">
          <mxGeometry relative="1" as="geometry">
            <mxPoint x="800" y="1780" as="sourcePoint" />
            <mxPoint x="540" y="1630" as="targetPoint" />
          </mxGeometry>
        </mxCell>
        <mxCell id="MjYStLLJE5w2eZP11G4p-8" value="ID" style="ellipse;whiteSpace=wrap;html=1;align=center;fontStyle=4;fillColor=#ffcccc;strokeColor=#36393d;" parent="1" vertex="1">
          <mxGeometry x="410" y="1660" width="100" height="40" as="geometry" />
        </mxCell>
        <mxCell id="MjYStLLJE5w2eZP11G4p-94" value="" style="edgeStyle=orthogonalEdgeStyle;rounded=0;orthogonalLoop=1;jettySize=auto;html=1;entryX=0.5;entryY=1;entryDx=0;entryDy=0;" parent="1" source="MjYStLLJE5w2eZP11G4p-93" target="MjYStLLJE5w2eZP11G4p-2" edge="1">
          <mxGeometry relative="1" as="geometry" />
        </mxCell>
        <mxCell id="MjYStLLJE5w2eZP11G4p-93" value="&lt;span style=&quot;border-bottom: 1px dotted&quot;&gt;AccountID&lt;/span&gt;" style="ellipse;whiteSpace=wrap;html=1;align=center;fillColor=#ffcccc;strokeColor=#36393d;" parent="1" vertex="1">
          <mxGeometry x="60" y="1730" width="100" height="40" as="geometry" />
        </mxCell>
        <mxCell id="MjYStLLJE5w2eZP11G4p-96" value="&lt;span style=&quot;border-bottom: 1px dotted&quot;&gt;ReservationID&lt;/span&gt;" style="ellipse;whiteSpace=wrap;html=1;align=center;fillColor=#ffcccc;strokeColor=#36393d;" parent="1" vertex="1">
          <mxGeometry x="-290" y="1490" width="100" height="40" as="geometry" />
        </mxCell>
        <mxCell id="MjYStLLJE5w2eZP11G4p-98" value="Status" style="ellipse;whiteSpace=wrap;html=1;align=center;fillColor=#ffcccc;strokeColor=#36393d;" parent="1" vertex="1">
          <mxGeometry x="-340" y="1040" width="100" height="40" as="geometry" />
        </mxCell>
        <mxCell id="S5t8gtHT40wTGtQgQojj-1" value="1" style="text;html=1;align=center;verticalAlign=middle;resizable=0;points=[];autosize=1;strokeColor=none;fillColor=none;" parent="1" vertex="1">
          <mxGeometry x="-95" y="1638" width="30" height="30" as="geometry" />
        </mxCell>
        <mxCell id="S5t8gtHT40wTGtQgQojj-2" value="N" style="text;html=1;align=center;verticalAlign=middle;resizable=0;points=[];autosize=1;strokeColor=none;fillColor=none;" parent="1" vertex="1">
          <mxGeometry x="-705" y="148" width="30" height="30" as="geometry" />
        </mxCell>
        <mxCell id="S5t8gtHT40wTGtQgQojj-3" value="" style="endArrow=none;html=1;rounded=0;dashed=1;dashPattern=1 2;exitX=0.5;exitY=1;exitDx=0;exitDy=0;entryX=0.5;entryY=0;entryDx=0;entryDy=0;" parent="1" source="oHuWamwqqKZyfX19s7B0-354" target="oHuWamwqqKZyfX19s7B0-11" edge="1">
          <mxGeometry relative="1" as="geometry">
            <mxPoint x="140" y="380" as="sourcePoint" />
            <mxPoint x="300" y="380" as="targetPoint" />
          </mxGeometry>
        </mxCell>
        <mxCell id="S5t8gtHT40wTGtQgQojj-4" value="1" style="resizable=0;html=1;whiteSpace=wrap;align=right;verticalAlign=bottom;" parent="S5t8gtHT40wTGtQgQojj-3" connectable="0" vertex="1">
          <mxGeometry x="1" relative="1" as="geometry" />
        </mxCell>
        <mxCell id="S5t8gtHT40wTGtQgQojj-5" value="Reservation" style="shape=ext;margin=3;double=1;whiteSpace=wrap;html=1;align=center;fillColor=#dae8fc;gradientColor=#7ea6e0;strokeColor=#6c8ebf;" parent="1" vertex="1">
          <mxGeometry x="-95" y="880" width="110" height="40" as="geometry" />
        </mxCell>
        <mxCell id="4Eenig6uLWs6y-KD1k0Y-1" value="In-flight Amenities" style="shape=ext;margin=3;double=1;whiteSpace=wrap;html=1;align=center;fillColor=#dae8fc;gradientColor=#7ea6e0;strokeColor=#6c8ebf;" parent="1" vertex="1">
          <mxGeometry x="560" y="1190" width="130" height="70" as="geometry" />
        </mxCell>
        <mxCell id="4Eenig6uLWs6y-KD1k0Y-2" value="ArlineLuggagePrice" style="shape=ext;margin=3;double=1;whiteSpace=wrap;html=1;align=center;fillColor=#dae8fc;gradientColor=#7ea6e0;strokeColor=#6c8ebf;" parent="1" vertex="1">
          <mxGeometry x="1270" y="1480" width="110" height="40" as="geometry" />
        </mxCell>
        <mxCell id="4Eenig6uLWs6y-KD1k0Y-4" value="N" style="text;html=1;align=center;verticalAlign=middle;resizable=0;points=[];autosize=1;strokeColor=none;fillColor=none;" parent="1" vertex="1">
          <mxGeometry x="1235" y="1478" width="30" height="30" as="geometry" />
        </mxCell>
        <mxCell id="4Eenig6uLWs6y-KD1k0Y-5" value="N" style="text;html=1;align=center;verticalAlign=middle;resizable=0;points=[];autosize=1;strokeColor=none;fillColor=none;" parent="1" vertex="1">
          <mxGeometry x="1025" y="1189" width="30" height="30" as="geometry" />
        </mxCell>
        <mxCell id="4Eenig6uLWs6y-KD1k0Y-6" value="1" style="text;html=1;align=center;verticalAlign=middle;resizable=0;points=[];autosize=1;strokeColor=none;fillColor=none;" parent="1" vertex="1">
          <mxGeometry x="35" y="1598" width="30" height="30" as="geometry" />
        </mxCell>
      </root>
    </mxGraphModel>
  </diagram>
</mxfile>
